<svg xmlns="http://www.w3.org/2000/svg" viewBox="0 0 94.74 131.93"><defs><clipPath id="A" transform="translate(-754.09 -479.72)"><path d="M0 0h1500v1500H0z" fill="none"/></clipPath></defs><g clip-path="url(#A)"><path d="M26.9 131.1c3-1.35 9.93-5.4.22-11.36a.72.72 0 0 1-.09-1.16c2.07-1.83 7.1-7.2-.1-10.83-8.84-4.48-5.87-15.48-5.87-15.48s3.5-1.5-1.88-17.56c-3.77-11.22 8.3-25.86 8.3-25.86s5.5-6.46 18.43-4.12c0 0 10-2.88 17.65 3.28 0 0 2.92 1.33 5.66 26.35 0 0 7.42 8.16.1 16.57s-1.88 15-1.88 15-15.53 16.22-.5 19.1c0 0 7.6 5-1.3 6.93 0 0 27.8 1.48 22.65-15.83 0 0-14.44-12.86 3.36-24.23 0 0 10.58-7-7.7-33.23 0 0-7.42-7.8-6.53-27.1a22.79 22.79 0 0 0-12.86-20.31S60.83 1.26 42.97.12s-27.37 14-27.37 14 .4 8.5-4.55 12a9 9 0 0 0 2.84 11s-10.42 13-6.13 24.4a78 78 0 0 1 4.74 21.37c0 0-17.2 10.48-3.9 19.7 0 0-19 8.24-.6 18 0 0 14.5 3.63 17 6.2l.44 3.58a1 1 0 0 0 1.4.81" fill="#f4c70c"/></g></svg>