<svg xmlns="http://www.w3.org/2000/svg" width="165" height="94" fill="none"><path d="M130.816 54.342s2.172 2.23 6.653 2.975c3.905.654 4.405 6.39 4.48 7.847.022.2.022.383 0 .573-.232 1.778-1.315 13.262 8.683 17.487.18.074.352.164.516.268 1.1.744 6.227 3.682 7.773-2.678 1.04-4.153 2.748-8.11 5.055-11.722.276-.435.454-.925.522-1.435.545-4.202 2.442-23.407-6.832-32.653C147.213 24.6 86.83-.022 80.08-.022c-5.287 0-30.113 2.893-72.636 31.775-2.464 1.68-3.435 4.18-4.18 7.066C.82 48.265-3.4 70.84 5.098 91.494a3.45 3.45 0 0 0 1.674 1.804 3.47 3.47 0 0 0 2.455.234c2.24-.67 4.555-2.752 2.18-8.97a3.49 3.49 0 0 1-.179-1.815c.102-.6.365-1.182.76-1.66 1.493-1.778 3.465-4.88 2.897-8.122a3.35 3.35 0 0 1 .281-2.088 3.37 3.37 0 0 1 1.474-1.512c2.053-1.064 4.562-3.816 5.622-10.778.075-.53.275-1.037.582-1.478a3.44 3.44 0 0 1 1.188-1.058 6.67 6.67 0 0 0 2.1-1.755 6.64 6.64 0 0 0 1.215-2.448c.143-.466.384-.896.706-1.262a3.47 3.47 0 0 1 1.162-.865 3.48 3.48 0 0 1 1.415-.317c.49-.005.973.093 1.422.287 4.48 1.882 12.118 2.7 22.16-5.63.633-.522 1.43-.802 2.252-.8s1.61.316 2.228.857c2.24 1.91 7.056 3.607 16.755-.565a3.47 3.47 0 0 1 1.732-.283c4.114.394 21.422 1.696 28.06-3.503a3.45 3.45 0 0 1 1.736-.734c.636-.08 1.28.02 1.863.287 2.24 1.034 6.772 2.298 16 2.365a4.32 4.32 0 0 0 1.143-.186c.955-.268 3.3.127 3.9 10.138" fill="#754034"/></svg>