<svg xmlns="http://www.w3.org/2000/svg" width="161" height="148" fill="none" stroke="#000" stroke-width="2" stroke-miterlimit="10"><path d="M82.393 83.227l-5.876-6.12 5.802-6.603 8.432-10.797L35.954 2c-8.487 9.816-3.606 44.257-3.606 44.257S38.772 66.326 57.1 87.56 82.856 98.7 82.856 98.7l-6.105-5.923.85-1.575 6.304-5.707-1.512-2.27z" fill="#bfc4c9"/><path d="M145.06 122.16s-2.154 7.934-6.205 7.994c-3.316.067-6.156-4.46-7.07-6.078-.196-.356-.3-.756-.302-1.163-.07-3.078-.56-17.323-4.02-21.407-3.583-4.222-23.128-15.224-26.21-16.945-.255-.148-.482-.34-.67-.567-1.3-1.492-7.28-7.307-15.588.4-.347.323-1.258 1.184-2.18 1.907-.51.395-1.153.576-1.797.505s-1.235-.39-1.652-.886l-.86-1.4c-.273-.648-.73-1.434-1.014-2.037l-3.153-6.498c-.23-.472-.3-1.003-.225-1.52a2.49 2.49 0 0 1 .701-1.361l12.858-12.853c.265-.265.586-.467.94-.59s.733-.166 1.107-.124c.335.035.66.137.954.3s.555.383.764.648c2.554 3.215 12.404 14.95 24.083 19.788l.133.05c1.225.44 21.475 7.903 26.567 24.984-.046.043 4.22 15.2 2.84 16.842z" fill="#796a5d"/></svg>