<svg xmlns="http://www.w3.org/2000/svg" xmlns:xlink="http://www.w3.org/1999/xlink" viewBox="0 0 207.03 660.32"><path d="M0 409.92l16-11.1 33.1-42.62a5.8 5.8 0 0 0-9.14-7.14l-33.1 42.62zM142.6 4.78s-20.1-18-47.1 15.93-69.28 50.57-79 63.74c0 0 40.18-16.63 54-23.56s13.16-5.54 13.16-5.54S65 68.47 61.54 81.68s-.7 24.24-6.93 37.4 119.16 9 119.16 9 12.47-21.47 9-43.64-1.38-76.9-40.17-79.67z" fill="#2f2e41"/><use xlink:href="#B" fill="#ffb9b9"/><use xlink:href="#B" opacity=".1"/><use xlink:href="#C" fill="#ffb9b9"/><use xlink:href="#C" opacity=".1"/><path d="M55.3 347s-22.86 86.6-22.16 128.86 9.73 101.15 9.73 101.15 1.4 25.63-.7 28.4 10.4 14.54 10.4 14.54l13.17-7.62 4.85-5.54v-4.85s-7.62-23.55-1.4-42.26 9.7-65.8 3.46-80.36l43-127.48z" fill="#ffb9b9"/><path d="M53.92 608.9s-8.3-10.4-13.86-6.93-14.55 27-14.55 27-31.17 29.8-9 31.18 31.87-6.24 34.64-11.78 28.4-20.1 28.4-20.1-2.77-26.33-6.93-27-10.4 10.4-10.4 10.4z" fill="#2f2e41"/><path d="M130.87 352.56v85.9a264.17 264.17 0 0 0 2 31.17c2.1 15.24-11.75 128.83-11.75 128.83l1.4 20.1 17.36-1.36 2-17.32 25-76.2s8.32-46.42 4.16-63.74 21.45-128.17 21.45-128.17z" fill="#ffb9b9"/><path d="M116.96 613.74l5.13-1.12s3.88-8.58 8.73-6.5a52.07 52.07 0 0 1 9.64 5.78l2.14 3.92s4.85 10.4 11.08 17.32 13.16 22.17 2.77 23.55-24.25 2.08-28.4-1.38-1.4-9-5.54-10.4-7.63-5.55-6.93-6.93 1.38-24.25 1.38-24.25z" fill="#2f2e41"/><circle cx="130.82" cy="51.19" r="33.25" fill="#ffb9b9"/><g fill="#6c63ff"><path d="M72.62 105.23l9.16-3.2s-3.6 6 15.8 9.43 39.48 4.7 48.5-6.67c0 0 3.46-1.65 8.3 3.2s7.62 3.47 7.62 3.47l-3.46 18-6.93 33.25-9 24.94-25.64-5.54-27.7-20.1-10.4-27v-24.95z"/><path d="M157.15 114.93l6.92-4.85s23.56 4.16 24.94 15.24l-18 34.64a39.44 39.44 0 0 1-.69 29.79c-6.93 15.94-6.24 19.4-6.24 19.4l-4.85 20.78-88 6.93s-3.46-8.3-4.85-9.7-1.4-6.23 0-6.23 0-2.08-1.4-4.16-2.07-2.77 0-5.54-3.46-27.7-3.46-27.7v-27.05L37.98 125.3s8.3-12.47 12.47-13.85 23.93-6.85 23.93-6.85l4.47 6.58 6.23 50.15 9 30.48 37.92-6.44 14.73-24.74 9.7-29.1z"/><path d="M183.47 121.17l5.54 4.15s4.85 38.8 3.47 41.57-25.6 5.58-26.33 4.16 17.32-49.88 17.32-49.88z"/></g><path d="M33.14 163.47s4.85 63.73 3.46 66.5 0 99.07 0 99.07-9.7 52 2.77 54.73 9.7-58.2 9.7-58.2l12.47-80.37-1.4-79.74z" fill="#ffb9b9"/><path d="M69.16 101.77l6.93 45.7s-6.24 67.9-4.85 81.75l1.38 4.16s-2.77-1.4-3.46 1.38 0 11.78 0 11.78-4.16 4.16-5.54 27-18 77.6-11.78 79.67 43.65 12.47 63.74 10.4 92.14-26.32 91.45-32.56-35.34-94.22-35.34-94.22-6.23-10.4-6.23-11.78 8.3-6.92 6.23-12.47-13.16-63.73-13.16-63.73l7.62-41.57-10.4-2.77-7.62 40.18s-29.8 14.55-61 1.4l-6.92-47.1z" fill="#2f2e41"/><path d="M43.53 123.24L38 125.32s-10.4 43.65-7.63 43.65 36 4.15 36 2.77-6.24-35.33-6.24-35.33z" fill="#6c63ff"/><path d="M104.5 22.1s51.27 35.37 65.13 19.37-24.25-29.77-24.25-29.77L113.5 8.24z" fill="#2f2e41"/><defs ><path id="B" d="M103.1 58.12s4.85 33.95-15.94 41.57-13.16 18-13.16 18l31.18 15.24 33.25-10.4 11.08-16.63s-18-4.15-13.16-16.62l6.24-16.63z"/><path id="C" d="M190.4 155.1s-4.85 63.74-3.46 66.5 0 99.07 0 99.07 9.7 52-2.78 54.73-9.7-58.2-9.7-58.2L162 236.86l1.4-79.67z"/></defs></svg>