<svg id="b0225cde-a2d2-4693-8ce5-502a1e8a6144" xmlns="http://www.w3.org/2000/svg" viewBox="0 0 207.03 660.32"><title>undraw_learning_2q1h</title><path d="M445.13,468.45l16-11.1,33.1-42.62a5.8,5.8,0,0,0-1-8.14h0a5.8,5.8,0,0,0-8.14,1l-33.11,42.62Z" transform="translate(-445.13 -58.53)" fill="#2f2e41"/><path d="M587.73,63.31s-20.09-18-47.11,15.93-69.28,50.57-79,63.74c0,0,40.18-16.63,54-23.56s13.16-5.54,13.16-5.54S510.13,127,506.67,140.21s-.69,24.24-6.93,37.41,119.16,9,119.16,9,12.47-21.47,9-43.64S626.52,66.08,587.73,63.31Z" transform="translate(-445.13 -58.53)" fill="#2f2e41"/><path d="M548.24,116.65s4.85,33.95-15.94,41.57-13.16,18-13.16,18l31.18,15.24,33.25-10.39,11.08-16.63s-18-4.15-13.16-16.62,6.24-16.63,6.24-16.63Z" transform="translate(-445.13 -58.53)" fill="#ffb9b9"/><path d="M548.24,116.65s4.85,33.95-15.94,41.57-13.16,18-13.16,18l31.18,15.24,33.25-10.39,11.08-16.63s-18-4.15-13.16-16.62,6.24-16.63,6.24-16.63Z" transform="translate(-445.13 -58.53)" opacity="0.1" style="isolation:isolate"/><path d="M635.53,213.64s-4.85,63.74-3.46,66.51,0,99.07,0,99.07,9.69,52-2.78,54.73-9.7-58.2-9.7-58.2l-12.47-80.36,1.39-79.67Z" transform="translate(-445.13 -58.53)" fill="#ffb9b9"/><path d="M635.53,213.64s-4.85,63.74-3.46,66.51,0,99.07,0,99.07,9.69,52-2.78,54.73-9.7-58.2-9.7-58.2l-12.47-80.36,1.39-79.67Z" transform="translate(-445.13 -58.53)" opacity="0.1" style="isolation:isolate"/><path d="M500.43,405.54s-22.86,86.6-22.16,128.86S488,635.55,488,635.55s1.39,25.63-.69,28.41,10.39,14.54,10.39,14.54l13.17-7.62,4.85-5.54v-4.85s-7.62-23.55-1.39-42.26,9.7-65.81,3.46-80.36l43-127.48Z" transform="translate(-445.13 -58.53)" fill="#ffb9b9"/><path d="M499.05,667.42s-8.31-10.39-13.86-6.93-14.55,27-14.55,27-31.17,29.79-9,31.18,31.87-6.24,34.64-11.78,28.4-20.09,28.4-20.09-2.77-26.33-6.93-27-10.39,10.39-10.39,10.39Z" transform="translate(-445.13 -58.53)" fill="#2f2e41"/><path d="M576,411.09V497A264.17,264.17,0,0,0,578,528.17C580.11,543.41,566.25,657,566.25,657l1.39,20.09L585,675.73,587,658.41,612,582.21s8.32-46.42,4.16-63.74S637.61,390.3,637.61,390.3Z" transform="translate(-445.13 -58.53)" fill="#ffb9b9"/><path d="M562.09,672.27l5.13-1.12s3.88-8.58,8.73-6.5a52.07,52.07,0,0,1,9.64,5.78l2.14,3.92s4.85,10.39,11.08,17.32,13.16,22.17,2.77,23.55-24.25,2.08-28.4-1.38-1.39-9-5.54-10.39-7.63-5.55-6.93-6.93S562.09,672.27,562.09,672.27Z" transform="translate(-445.13 -58.53)" fill="#2f2e41"/><circle cx="130.82" cy="51.19" r="33.25" fill="#ffb9b9"/><path d="M517.75,163.76l9.16-3.19s-3.61,6,15.79,9.43,39.48,4.69,48.49-6.67c0,0,3.46-1.65,8.31,3.2s7.62,3.47,7.62,3.47l-3.46,18-6.93,33.25-9,24.94-25.64-5.54-27.71-20.09-10.39-27V168.61Z" transform="translate(-445.13 -58.53)" fill="#6c63ff"/><path d="M602.28,173.46l6.92-4.85s23.56,4.16,24.94,15.24l-18,34.64a39.44,39.44,0,0,1-.69,29.79c-6.93,15.94-6.24,19.4-6.24,19.4l-4.85,20.78-88,6.93s-3.46-8.31-4.85-9.7-1.39-6.23,0-6.23,0-2.08-1.39-4.16-2.07-2.77,0-5.54-3.46-27.71-3.46-27.71V215l-23.55-31.18s8.31-12.47,12.47-13.85,23.93-6.85,23.93-6.85l4.47,6.58,6.23,50.15,9,30.48,37.92-6.44,14.73-24.74,9.7-29.09Z" transform="translate(-445.13 -58.53)" fill="#6c63ff"/><path d="M628.6,179.7l5.54,4.15s4.85,38.8,3.47,41.57S612,231,611.28,229.58,628.6,179.7,628.6,179.7Z" transform="translate(-445.13 -58.53)" fill="#6c63ff"/><path d="M478.27,222s4.85,63.73,3.46,66.5,0,99.07,0,99.07-9.7,52,2.77,54.73,9.7-58.19,9.7-58.19l12.47-80.37L505.28,224Z" transform="translate(-445.13 -58.53)" fill="#ffb9b9"/><path d="M514.29,160.3,521.22,206s-6.24,67.89-4.85,81.75l1.38,4.16s-2.77-1.39-3.46,1.38,0,11.78,0,11.78-4.16,4.16-5.54,27-18,77.59-11.78,79.67,43.65,12.47,63.74,10.39,92.14-26.32,91.45-32.56-35.34-94.22-35.34-94.22-6.23-10.39-6.23-11.78,8.31-6.92,6.23-12.47-13.16-63.73-13.16-63.73l7.62-41.57-10.39-2.77-7.62,40.18s-29.79,14.55-61,1.39l-6.92-47.11Z" transform="translate(-445.13 -58.53)" fill="#2f2e41"/><path d="M488.66,181.77l-5.54,2.08s-10.4,43.65-7.63,43.65,36,4.15,36,2.77-6.24-35.33-6.24-35.33Z" transform="translate(-445.13 -58.53)" fill="#6c63ff"/><path d="M549.62,80.63S600.89,116,614.75,100,590.5,70.23,590.5,70.23l-31.87-3.46Z" transform="translate(-445.13 -58.53)" fill="#2f2e41"/></svg>