<svg xmlns="http://www.w3.org/2000/svg" width="177" height="96" fill="none"><g clip-path="url(#A)" fill="#000"><path d="M22.646-.022l58.97.136 4.284 24.49-10.277.143s-4.138 21.936-3.712 26.18c0 0 8.284 14.72 4.427 21.114 0 0-54.405 32.13-76.108 21.37 0 0-2.145-5.1 6.7-11.3 0 0 22.707-24.205 22.562-25.766s.997-15.994-2-29.016l-4.427-.988L22.65-.023zm72.53-.001l-4.3 23.776 9.714.566 4.283 26.935s-12.567 20.66-.86 23.497c0 0 59.403 30.57 72.267 18.4 0 0 3.14-1.697-3.713-8.212s-31.698-25.193-26.274-42.182l2-15.835 4.565-.28L153.14.3h-53.4"/></g><defs><clipPath id="A"><path fill="#fff" d="M0 0h177v96H0z"/></clipPath></defs></svg>