<svg width="177" height="96" viewBox="0 0 177 96" fill="none" xmlns="http://www.w3.org/2000/svg">
<g clip-path="url(#clip0)">
<path d="M22.6464 -0.0224609L81.616 0.113265L85.8988 24.6053L75.6217 24.7486C75.6217 24.7486 71.4835 46.6843 71.9094 50.9297C71.9094 50.9297 80.1934 65.6491 76.3367 72.0435C76.3367 72.0435 21.9313 104.174 0.228524 93.4137C0.228524 93.4137 -1.91665 88.3238 6.93792 82.1027C6.93792 82.1027 29.6449 57.8973 29.5003 56.3363C29.3558 54.7754 30.4969 40.3426 27.4997 27.3199L23.0724 26.3321L22.6464 -0.0224609Z" fill="#A78C76"/>
<path d="M95.1771 -0.0227051L90.8867 23.753L100.601 24.3185L104.884 51.2537C104.884 51.2537 92.3169 71.9151 104.024 74.7504C104.024 74.7504 163.427 105.32 176.291 93.1496C176.291 93.1496 179.432 91.4529 172.578 84.9378C165.725 78.4227 140.88 59.7445 146.304 42.7554L148.304 26.92L152.869 26.641L153.15 0.309085H99.7489" fill="#A78C76"/>
</g>
<defs>
<clipPath id="clip0">
<rect width="177" height="96" fill="white"/>
</clipPath>
</defs>
</svg>
