<svg xmlns="http://www.w3.org/2000/svg" width="170" height="132" fill="none"><g clip-path="url(#A)" fill="#897879"><path d="M123.507 2.94s-8.87 1-9.93 4.34-5 46-4.46 50.34c-.86.94-43.15 47.93-5.28 33.93.01-.003.02-.004.03-.003s.02.005.027.01a.07.07 0 0 1 .019.023c.004.01.006.02.005.03-.57 2.1-9 33.8 5.38 38.5 14.85 4.86 28.5-8.9 35.3-30.83 0 0 6.06-17 2.67-26.64v-.05c.5-.85 18.55-31.94 22.4-50.2.394-1.9.407-3.86.04-5.764s-1.108-3.72-2.18-5.336l-1.82-1c-.4-.15-17.76-10.16-42.2-7.34zM47.37.8s8.82 1.3 9.76 4.7S60.5 51.87 59.75 56c0 0 41.86 49.74 3.95 34.06 0 0 8.25 34.07-6.76 38.4s-28.16-10-34.16-32.1c0 0-5.45-17.27-1.7-26.75 0 0-22.43-41.85-21-57.8l3-4.22A77.91 77.91 0 0 1 47.369.81z"/></g><defs><clipPath id="A"><path fill="#fff" d="M0 0h169.97v131.13H0z"/></clipPath></defs></svg>