<svg xmlns="http://www.w3.org/2000/svg" width="50" height="50" fill="none"><g clip-path="url(#A)"><path d="M49.972 23.096c-.112-.858-.55-1.62-1.236-2.148l-9.196-7.08v-7.1c0-1.786-1.453-3.24-3.238-3.24s-3.238 1.453-3.238 3.24V8.88l-6.1-4.7C26.41 3.757 25.7 3.518 25 3.518s-1.414.24-1.977.673L1.26 20.948c-1.414 1.1-1.68 3.126-.59 4.54a3.22 3.22 0 0 0 2.568 1.262 3.2 3.2 0 0 0 1.476-.354v16.846c0 1.786 1.453 3.24 3.24 3.24H22.5V31.187h4.985V46.48h14.342c1.785 0 3.238-1.452 3.238-3.24V26.274c.5.313 1.09.477 1.693.477 1.012 0 1.948-.46 2.567-1.26.53-.685.76-1.535.646-2.394zm-3.017.565a.24.24 0 0 1-.194.096c-.054 0-.104-.017-.148-.05l-4.54-3.495v23.032c0 .136-.1.245-.244.245H30.48l.001-15.294H19.508v15.294H7.953c-.134 0-.243-.11-.243-.245V20.377l-4.323 3.328c-.044.034-.093.05-.148.05-.046 0-.13-.013-.195-.095-.05-.066-.055-.134-.05-.18s.027-.11.093-.16L24.852 6.564c.108-.082.188-.083.297 0l10.9 8.4v-8.21c0-.135.1-.244.244-.244s.245.11.245.244v8.583l10.365 7.98c.066.05.085.115.09.16s.002.116-.05.18z" fill="#4caee1"/></g><defs><clipPath id="A"><path fill="#fff" d="M0 0h50v50H0z"/></clipPath></defs></svg>