<svg xmlns="http://www.w3.org/2000/svg" viewBox="0 0 227.11 603.46"><path d="M31.6 273.84l-4.4 13.23s-27.55 32-7.7 36.36 22-34.16 22-34.16l5.5-11z" fill="#ffb8b8"/><path d="M62.47 114.06s-6.62-1.1-8.82 25.34-3.3 72.73-3.3 72.73l-25.34 65 32 9.92 15.34-73.82z" fill="#575a89"/><path d="M48.14 507.46l-3.3 20.94H74.6l-1.1-20.94H48.14zm95.88 23.14l-2.2 28.65 19.84 2.2V528.4l-17.63 2.2z" fill="#ffb8b8"/><path d="M60.26 234.17L34.92 379.63l6.6 132.24H75.7V391.73l33.06-61.7 26.45 77.14 6.6 128.93 37.46-6.6-8.8-125.62s-6.6-167.5-13.22-169.7-96.98.02-96.98.02zm-8.8 287.63s0-11-8.82-4.4-19.83 18.7-19.83 18.7-41.87 23.14-12.12 26.45 48.5-15.43 48.5-15.43l3.3 3.3s17.63-3.3 17.63-7.72a85 85 0 0 0-1.11-11s-2.3-18.7-5-14.85-18.14 11.53-22.54 4.92zm111.3 30.84s-19.84-9.92-24.25-1.1-7.7 26.45-7.7 26.45-14.33 27.55 11 25.34 24.24-16.53 24.24-19.83-1.1-11 0-14.33-3.28-16.53-3.28-16.53z" fill="#2f2e41"/><g fill="#ffb8b8"><circle cx="119.22" cy="39.67" r="30.86"/><path d="M98.83 54.55l-1.1 39.67 39.67-3.3V54.55H98.83z"/></g><path d="M139.6 71.08S120.87 83.2 115.34 85.4 97.7 76.6 97.7 76.6s-3.3 2.2-3.3 4.4-2.2 11-2.2 11l-26.45 87.05 2.2 61.7s80.44 7.72 89.26-2.2-4.4-152.07-4.4-152.07z" fill="#4caee1"/><path d="M134.1 94.22s-29.75 11-39.67 1.1c0 0 14.33 3.3 39.67-1.1z" opacity=".1"/><path d="M212.34 333.35c-12.12 7.7-51.8 17.63-51.8 17.63s-4.33-93.28-19.83-108-40.6-120.23-18-138.6l.32-.26 14.33-33.06s2.2-3.3 6.6 1.1a119.93 119.93 0 0 1 9.92 12.12l.63.26 30.22 11.86-12.12 54s51.83 175.23 39.7 182.94z" fill="#575a89"/><path d="M154.56 84.56l-8.34 30.6-23.47-10.76.32-.26 14.33-33.06s2.2-3.3 6.6 1.1a119.93 119.93 0 0 1 9.92 12.12z" opacity=".1"/><path d="M97.18 76.04L93.7 115.2 68.53 354.84s-22-7.72-29.76-16.53 17.63-106.9 17.63-106.9L58.6 108s19.55-13.76 27.54-21.32c1.87-1.76 3.1-3.18 3.3-4 1.1-4.43 7.72-6.63 7.72-6.63z" fill="#575a89"/><path d="M97.18 76.04L93.7 115.2l-15.8-2.26 8.26-26.28c1.87-1.76 3.1-3.18 3.3-4 1.1-4.43 7.72-6.63 7.72-6.63z" opacity=".1"/><path d="M156.13 261.73l-12.12 11s5.5 23.14 12.12 24.24c0 0 4.4-6.6 5.5-12.12s11-11 11-11z" fill="#ffb8b8"/><path d="M170.46 94.22l14.32 2.2s47.4 80.45 41.88 109.1-49.6 78.2-49.6 78.2l-27.55-22 40.82-55.1-21-66.12z" fill="#575a89"/><g fill="#2f2e41"><path d="M88.34 43.14s0-27.2 6.6-33.4h7.94s9.26-13.6 21.16-8.66 31.7 13.65 30.37 27.22-5.45 22.43-5.45 22.43-2.2 0-7.12-7.4c-6.56-9.9 8.6-6.8-11.24-10.52s-31.74-8.66-34.38-3.7-7.9 14.03-7.9 14.03z"/><path d="M102.7 11.6s1.06-7.95 5.4-9.67z"/><path d="M102.7 13.23s-2.2-7.72 1.1-11z"/></g></svg>