<svg id="fd86286a-adcb-4d81-b7ed-f4cd333bf213" xmlns="http://www.w3.org/2000/svg" viewBox="0 0 227.11 603.46"><title>undraw_quiz_nlyh</title><path d="M463.27,302.11l-4.41,13.23s-27.55,32-7.71,36.36,22-34.16,22-34.16l5.51-11Z" transform="translate(-431.66 -28.27)" fill="#ffb8b8"/><path d="M494.13,142.33s-6.62-1.11-8.82,25.34S482,240.4,482,240.4l-25.34,65,32,9.92L504,241.5Z" transform="translate(-431.66 -28.27)" fill="#575a89"/><polygon points="48.14 507.46 44.84 528.4 74.59 528.4 73.49 507.46 48.14 507.46" fill="#ffb8b8"/><polygon points="144.02 530.6 141.81 559.25 161.65 561.46 161.65 528.4 144.02 530.6" fill="#ffb8b8"/><path d="M491.92,262.44,466.58,407.9l6.61,132.24h34.16V420l33.06-61.71,26.45,77.14,6.61,128.93,37.46-6.61-8.81-125.62s-6.61-167.5-13.22-169.71S491.92,262.44,491.92,262.44Z" transform="translate(-431.66 -28.27)" fill="#2f2e41"/><path d="M483.11,550.06s0-11-8.82-4.41-19.84,18.73-19.84,18.73-41.87,23.14-12.12,26.45,48.49-15.43,48.49-15.43l3.31,3.31s17.63-3.31,17.63-7.72a85,85,0,0,0-1.11-11s-2.31-18.69-5-14.85S487.51,556.67,483.11,550.06Z" transform="translate(-431.66 -28.27)" fill="#2f2e41"/><path d="M594.41,580.91s-19.84-9.92-24.25-1.1-7.71,26.45-7.71,26.45-14.33,27.55,11,25.34,24.24-16.53,24.24-19.83-1.1-11,0-14.33S594.41,580.91,594.41,580.91Z" transform="translate(-431.66 -28.27)" fill="#2f2e41"/><circle cx="119.22" cy="39.67" r="30.86" fill="#ffb8b8"/><polygon points="98.83 54.55 97.73 94.22 137.4 90.91 137.4 54.55 98.83 54.55" fill="#ffb8b8"/><path d="M571.26,99.35S552.53,111.47,547,113.67s-17.63-8.81-17.63-8.81-3.31,2.2-3.31,4.41-2.2,11-2.2,11l-26.45,87.05,2.21,61.71s80.44,7.72,89.26-2.2-4.41-152.07-4.41-152.07Z" transform="translate(-431.66 -28.27)" fill="#4caee1"/><path d="M565.75,122.49s-29.75,11-39.67,1.1C526.08,123.59,540.41,126.9,565.75,122.49Z" transform="translate(-431.66 -28.27)" opacity="0.1" style="isolation:isolate"/><path d="M644,361.62c-12.12,7.71-51.79,17.63-51.79,17.63s-4.33-93.28-19.83-108-40.59-120.23-18-138.59l.32-.26,14.33-33.06s2.2-3.31,6.61,1.1a119.93,119.93,0,0,1,9.92,12.12l.63.26,30.22,11.86-12.12,54S656.12,353.91,644,361.62Z" transform="translate(-431.66 -28.27)" fill="#575a89"/><path d="M586.22,112.83l-8.34,30.6-23.47-10.76.32-.26,14.33-33.06s2.2-3.31,6.61,1.1a119.93,119.93,0,0,1,9.92,12.12Z" transform="translate(-431.66 -28.27)" opacity="0.1" style="isolation:isolate"/><path d="M528.84,104.31l-3.31,37.46-.17,1.71L500.19,383.11s-22-7.72-29.76-16.53,17.63-106.89,17.63-106.89l2.21-123.43s19.55-13.76,27.54-21.32c1.87-1.76,3.1-3.18,3.31-4C522.23,106.51,528.84,104.31,528.84,104.31Z" transform="translate(-431.66 -28.27)" fill="#575a89"/><path d="M528.84,104.31l-3.31,37.46-.17,1.71-15.81-2.26,8.26-26.28c1.87-1.76,3.1-3.18,3.31-4C522.23,106.51,528.84,104.31,528.84,104.31Z" transform="translate(-431.66 -28.27)" opacity="0.1" style="isolation:isolate"/><path d="M587.79,290l-12.12,11s5.51,23.14,12.12,24.24c0,0,4.41-6.61,5.51-12.12s11-11,11-11Z" transform="translate(-431.66 -28.27)" fill="#ffb8b8"/><path d="M602.12,122.49l14.32,2.2s47.39,80.45,41.88,109.1S608.73,312,608.73,312l-27.55-22L622,234.89,601,168.77Z" transform="translate(-431.66 -28.27)" fill="#575a89"/><path d="M520,71.41s0-27.21,6.61-33.4h7.94s9.26-13.6,21.16-8.66S587.4,43,586.08,56.57,580.63,79,580.63,79s-2.2,0-7.12-7.39c-6.56-9.89,8.6-6.81-11.24-10.52s-31.74-8.66-34.38-3.71S520,71.41,520,71.41Z" transform="translate(-431.66 -28.27)" fill="#2f2e41"/><path d="M534.37,39.86s1.06-7.95,5.41-9.67Z" transform="translate(-431.66 -28.27)" fill="#2f2e41"/><path d="M534.35,41.5s-2.21-7.72,1.1-11Z" transform="translate(-431.66 -28.27)" fill="#2f2e41"/></svg>