<svg xmlns="http://www.w3.org/2000/svg" width="79" height="53" fill="#754034"><path d="M.895 6.124s15.382 0 21.46-3.778a4.53 4.53 0 0 1 2.24-.744c4.428-.156 17.965-.848 14.388 4.463-1.493 2.23-8.116-.997-20.115 4.708S.895 6.124.895 6.124zm64.212-1.488S45-4.66 41.408 5.5a.47.47 0 0 0 .426.64 64.2 64.2 0 0 1 21.982 4.939c.545.23 5.376.23 5.772.23 2.24 0 7.205-.52 8.766-3.853a.46.46 0 0 0-.185-.582c-.064-.038-.136-.06-.2-.065-2.5-.14-9.864.067-12.85-2.172zm-25.385 25.29s0 7.438-9.707 6.694c0 0 7.467 14.876 13.44 15.62 0 0-.747-3.72 8.213-14.876a7.43 7.43 0 0 1-4.12-2.344 7.38 7.38 0 0 1-1.853-4.351l-5.973-.744z"/></svg>