<svg xmlns="http://www.w3.org/2000/svg" viewBox="0 0 314.77 894.1"><defs><radialGradient  cx="904.1" cy="303.48" r="0" gradientUnits="userSpaceOnUse"><stop offset="0" stop-color="#ce0b5a"/><stop offset=".55" stop-color="#c43193"/><stop offset="1" stop-color="#bc51c4"/></radialGradient></defs><path d="M78.14 602.76s-14.26 127.64-12 164.06l57.06-.38s4.5-143.8 11.26-148.68L86.03 598.6zm114.16 10.48s17.27 134.78 11.26 153.92h58.2s-4.13-140.4-14.26-167.8zM68.76 321.83l.56-1.6-36-27.78-.28-.18s-40.83 43.17-29.94 129l10.33 6.38 38.1-3.94s-14.3-51.86 17.23-101.88zm194.8 75.67l-3 19.58 44.17.38 5.6 3s14.47-84.94-33.07-154.25l-2.84 12.35-33.73 18.2s32.94 42.47 22.86 100.74z" fill="#dfddde"/><path d="M255.7 515l13.54 43.9 2.36 15.67a20.39 20.39 0 0 1-11.3 21.44c-30.64 14.68-109.9 42.77-200.74-3a19.87 19.87 0 0 1-10.6-21c3.66-22 12.53-65.9 30-106.43l71.64 23 66.44-10.35L230.7 474M126.2 259.42l-57.76-12.46c-1.45-.3-.6-1.37-1.7-.4l-41.05 35 7.32 10.7S67.46 320.4 77.6 326.8l1.88-1.87s-13.1 92.35-3.1 119.1c0 0 5.9 22.8 65.6 25.9 10.53.55 79 2.46 86.14-7.3 35.93-49 6.93-151.94 6.93-151.94l.2-3.95 1.88 3 54.43-21.12 1.3-5.86s-19.66-34.8-41.43-44.2c0 0-28.72 13.9-56.3 20.27 0 .01-33.6 27.04-68.9.58z" fill="#2b79d6"/><path d="M146.63 470.1l-9.45-38.4s-50.38-6.66-62.9-58.6c0 0-2.85 55.86 1.1 67.83 3.66 11.07 12.12 28.73 63.1 28.77m78.47 8.56l-65.66 63a2.22 2.22 0 0 0 2.88 3.37c25.2-19.28 60.4-48.33 72.38-68.48" fill="#125faa"/><path d="M47.36 414.46s8.82 1.32 9.76 4.7 3.38 46.37 2.63 50.5c0 0 41.86 49.74 3.94 34.07 0 0 8.26 34.07-6.76 38.38s-28.15-10-34.16-32.1c0 0-5.44-17.26-1.7-26.74 0 0-22.43-41.86-21-57.82l3-4.22a77.91 77.91 0 0 1 44.28-6.76z" fill="#897879"/><path d="M229.88 456.54s-139.72 16.22-153.52-12.5c0 0-2.9 1.3 1.23 21a6.28 6.28 0 0 0 2.23 3.62c6.55 5.2 31.06 22.14 70.7 20 0 0 57.76-6.06 76-12.45 15.1-5.3 5.78-20 3.37-19.66z" fill="#592f05"/><path d="M53.18 766.76l77.52.18 5.6 32.5-13.5.2s-5.44 29.1-4.88 34.72c0 0 10.9 19.52 5.82 28 0 0-71.52 42.6-100.05 28.34 0 0-2.82-6.75 8.82-15 0 0 29.85-32.1 29.66-34.17s1.3-21.2-2.63-38.48l-5.82-1.3zm144.35 0l-5.64 31.53 12.77.75 5.63 35.72s-16.52 27.4-1.13 31.16c0 0 78.1 40.54 95 24.4 0 0 4.13-2.25-4.88-10.9s-41.67-33.4-34.54-55.94l2.63-21 6-.37.37-34.92h-70.2" fill="#a78c76"/><path d="M64.68 248.34l23.8-20.58s-33.82-59.1-29.3-124.42c0 0 7.5-31.34 50.68-62.5l90.1 7.32s74.52 89.9 47.86 139.1l-15.36 40 19 11.26s-43.93 21.4-59.32 23.28c0 0-30.88 24-62.8 1.12z" fill="#d2d1d2"/><path d="M86.6 189.2s39.23 45.62 71.52 49.37 72.26-48.38 72.26-48.38-36.27 27.64-71.9 28.48c-34.2.82-69.26-30.6-69.26-30.6" fill="#c4c3c4"/><path d="M268.3 406.6s-8.87 1-9.93 4.33-5 46.06-4.46 50.34c-.86 1-43.15 47.94-5.28 33.93a.06.06 0 0 1 .08.07c-.57 2.1-9 33.8 5.38 38.5 14.85 4.86 28.5-8.92 35.3-30.84 0 0 6.06-17 2.67-26.64.5-.85 18.55-31.94 22.4-50.22a14.68 14.68 0 0 0-2.14-11.09l-1.82-1c-.4-.23-17.75-10.23-42.2-7.38z" fill="#897879"/><path d="M151.95 1.53s-9.57 4.8-78.54 46.24c-1.54.92-6.73 10.3-7.3 12-3.8 11.57-23.12 35.86-9.17 66.75 0 0-9.77 65.47 96.25 96.9a15.86 15.86 0 0 0 7.71.35c19.82-4.08 106.9-26.8 98-109.26 0 0 7-20 10-22 0 0 3-27-9-45 .04.01-84.96-49-107.96-46z" fill="#fcd8be"/><path d="M224.04 73.07s2.9 3 8.9 4c5.23.88 5.9 8.6 6 10.55a3.31 3.31 0 0 1 0 .77c-.3 2.4-1.76 17.83 11.63 23.5a4.52 4.52 0 0 1 .69.36c1.46 1 8.34 4.95 10.4-3.6a53.55 53.55 0 0 1 6.77-15.76 4.78 4.78 0 0 0 .7-1.93c.73-5.65 3.27-31.47-9.15-43.9-14-14-54.84-47.38-103.9-47.1-32.44.2-60-2.88-85.36 27.34-1.35 1.6-9.7 21.27-15.3 30.28-6.9 11.16-11.15 37.65.23 65.42a4.63 4.63 0 0 0 5.53 2.74c3-.9 6.1-3.7 2.92-12.06a4.71 4.71 0 0 1 .78-4.67c2-2.4 4.64-6.56 3.88-10.92a4.52 4.52 0 0 1 2.35-4.84c2.75-1.43 6.1-5.13 7.53-14.5a4.61 4.61 0 0 1 2.37-3.41 8.94 8.94 0 0 0 4.44-5.65 4.65 4.65 0 0 1 6.3-2.9c6 2.53 16.23 3.63 29.68-7.57a4.62 4.62 0 0 1 6 .09c3 2.57 9.45 4.85 22.44-.76a4.63 4.63 0 0 1 2.32-.38c5.5.53 28.7 2.28 37.58-4.7a4.61 4.61 0 0 1 4.82-.6c3 1.4 9.07 3.1 21.43 3.18a5.76 5.76 0 0 0 1.53-.25c1.28-.36 4.42.17 5.2 13.63" fill="#f69980"/><path d="M145.04 175.45s14.07 10.14 28.85-.28" fill="none" stroke="#000" stroke-miterlimit="10" stroke-width="2"/><path d="M149.6 142.76s7.8 1.4 10.4 3.66c0 0 7.58-5.16 10.77-3.1 0 0-.28 2.82-10.77 5.63 0 .03-13.16-2-10.4-6.2z" fill="#e6bfb0"/><g fill="#020202"><circle cx="116.45" cy="91.61" r="8.5"/><circle cx="193.45" cy="91.61" r="8.5"/></g><path d="M126.2 163.62h63s-8 23-30 23-33-23-33-23z" fill="#fff"/><path d="M107.2 158.62s20.6 0 28.75-5.1a6 6 0 0 1 3-1c5.93-.2 24.07-1.14 19.27 6.05-2 3-10.87-1.34-26.93 6.33s-24.1-6.3-24.1-6.3zm86-2s-26.92-12.5-31.74 1.14a.64.64 0 0 0 .57.86 85.69 85.69 0 0 1 29.45 6.67c.72.3 7.2.3 7.72.3 3 0 9.66-.7 11.75-5.18a.63.63 0 0 0-.54-.87c-3.36-.2-13.2.07-17.2-2.93zm-38 33s0 10-13 9c0 0 10 20 18 21 0 0-1-5 11-20a9.94 9.94 0 0 1-8-9z" fill="#fc9c81"/></svg>