<svg width="187" height="556" viewBox="0 0 187 556" fill="none" xmlns="http://www.w3.org/2000/svg">
<g clip-path="url(#clip0)">
<path d="M141.201 225.01C141.201 225.01 131.751 190.43 131.281 183.8L141.201 225.01Z" fill="#599A49"/>
<path d="M155.2 300.74C155.2 300.74 138.98 256.21 138.49 244.45C138.49 244.45 143.83 235.15 140.37 220.71C136.91 206.27 131.5 192.42 131.37 185.8C131.24 179.18 128.93 157.12 128.93 157.12C128.93 157.12 129.86 139.21 131.37 139.21C131.37 139.21 138.53 137.21 139.81 155.14C141.09 173.07 149.81 221.7 150.59 222.09C151.37 222.48 163.75 241.87 162.76 255.09C161.77 268.31 168.1 295.92 168.1 295.92L155.2 300.74Z" fill="#8DC36B"/>
<path d="M163.629 271.28H151.629L152.219 264.18C152.219 264.18 145.219 257.85 146.089 246.28C146.959 234.71 141.199 225.01 141.199 225.01L137.199 239.55L139.329 249.85L144.099 267.59L153.279 294.69L154.799 300.01L168.119 295.96L163.629 271.28Z" fill="#599A49"/>
<path d="M154.531 299.79C154.531 299.79 154.781 305.41 156.011 305.03L170.011 300.78C170.011 300.78 170.911 295.78 167.591 295.04C164.271 294.3 154.591 299.79 154.591 299.79" fill="#C22139"/>
<path d="M143.201 284.58C143.201 284.58 145.051 297.85 154.311 298.1L142.551 259.48C142.551 259.48 141.381 275.22 143.151 284.58" fill="#C22139"/>
<path d="M151.649 244.15C151.649 244.15 148.489 288.3 157.089 295.7C157.089 295.7 167.479 290.04 151.649 244.15Z" fill="#C22139"/>
<path d="M165.911 292.84C165.911 292.84 174.981 286.97 174.911 284.2C174.841 281.43 161.301 256.5 161.301 256.5L165.911 292.84Z" fill="#C22139"/>
<path d="M57.1522 182.99L62.9722 189.83L49.7222 245.15L46.2422 225.53" fill="#C22139"/>
<path d="M33.1998 299.93C33.1998 299.93 49.4198 255.4 49.9198 243.63C49.9198 243.63 44.5799 234.34 48.0399 219.9C51.4999 205.46 56.8999 191.61 57.0399 184.99C57.1799 178.37 59.5098 156.28 59.5098 156.28C59.5098 156.28 58.5898 138.38 57.0698 138.38C57.0698 138.38 49.9198 136.38 48.6298 154.31C47.3398 172.24 38.6299 220.87 37.8499 221.31C37.0699 221.75 24.6998 241.09 25.6798 254.31C26.6598 267.53 20.3398 295.15 20.3398 295.15L33.1998 299.93Z" fill="#8DC36B"/>
<path d="M24.7894 270.42H36.7894L36.1994 263.28C36.1994 263.28 43.1994 256.95 42.3294 245.38C41.4594 233.81 47.1994 224.2 47.1994 224.2L51.1994 238.74L49.0794 249.04L44.2994 266.78L35.1994 293.88L33.6794 299.19L20.3594 295.19L24.7894 270.42Z" fill="#599A49"/>
<path d="M33.8889 298.98C33.8889 298.98 33.6389 304.59 32.3989 304.22L18.4589 299.97C18.4589 299.97 17.5589 294.97 20.8789 294.23C24.1989 293.49 33.8789 298.98 33.8789 298.98" fill="#C22139"/>
<path d="M45.2692 283.77C45.2692 283.77 43.4092 297.04 34.1992 297.28L45.9092 258.66C45.9092 258.66 47.0792 274.4 45.3192 283.76" fill="#C22139"/>
<path d="M22.5003 292.03C22.5003 292.03 13.4403 286.16 13.5003 283.39C13.5603 280.62 27.1003 255.69 27.1003 255.69L22.5003 292.03Z" fill="#C22139"/>
<path d="M38.7691 244.15C38.7691 244.15 35.7691 287.57 27.1391 294.96C27.1391 294.96 22.9491 290.04 38.7691 244.15Z" fill="#C22139"/>
<path d="M131.251 183.8L125.441 190.64L138.681 245.96L142.171 226.34" fill="#C22139"/>
<path d="M51.7006 544.35L77.1006 545.63C77.1006 545.63 43.3906 569.14 51.7006 544.35Z" fill="black"/>
<path d="M103.301 540.34C103.301 540.34 118.551 558.34 135.831 545.67C135.831 545.67 135.831 535.67 121.451 533.93C107.071 532.19 103.301 540.34 103.301 540.34Z" fill="black"/>
<path d="M57.0698 138.4L59.8398 138.75L72.4298 155.23L92.7998 163.94L105.96 161.96L121.78 152.66L129.59 141.09L131.87 140.4V184.41L123.86 196.08L95.0098 201.22L68.1798 198.46L58.6798 188.56L53.8398 177.59L57.0698 138.4Z" fill="#8DC36B"/>
<path d="M0.000427246 524.17C0.000427246 524.17 27.4304 418.41 38.5104 330.17L62.6404 189.17C62.6404 189.17 67.4504 197.87 94.4204 196.42C121.39 194.97 125.42 190.65 125.42 190.65L151.24 327.65C151.24 327.65 185.24 514.57 186.44 519.72C186.44 519.72 174.44 544.34 156.18 535.54C137.92 526.74 88.4304 544.94 88.4304 544.94C88.4304 544.94 35.2605 551.83 -0.0195312 524.2" fill="#8DC36B"/>
<path d="M4.39001 506.54C4.39001 506.54 17.15 573.75 44.58 409.71C44.58 409.71 36.66 491.47 44.58 513.09C44.58 513.09 62.51 459.82 59.87 447.16C59.87 447.16 61.36 504.06 68.58 508.16C68.58 508.16 92.31 427.86 91.12 386.32C91.12 386.32 102 489.32 114.27 502.43C114.27 502.43 127.72 472.56 130.27 387.31C130.27 387.31 145.1 472.16 151.04 477.11C153.691 465.975 154.954 454.555 154.8 443.11C154.8 443.11 163.5 478.71 173.59 480.89C173.59 480.89 177.35 467.74 175.77 462L186.44 519.66C186.44 519.66 176.2 547.77 152.98 534.28C152.98 534.28 139.72 527.95 88.45 544.87C88.45 544.87 46.23 549.18 22.29 536.72C22.29 536.72 2.38 527.82 0 524.13L4.39001 506.54Z" fill="#5D934D"/>
<path d="M74.6408 354.19L67.2508 446.24L64.6208 420.65L51.3008 449.53L52.8808 401.86L58.4208 415.25L74.6408 354.19Z" fill="#ACD980"/>
<path d="M111.701 342.19C111.701 342.19 125.151 393.19 123.561 395.73L116.051 380.28L117.691 438.57L110.691 360.11L111.701 342.19Z" fill="#ACD980"/>
<path d="M135.16 355.51L150.06 431.73L151.91 404.56L163.91 431.2L139.25 302.1L145.58 379.11L135.16 355.51Z" fill="#ACD980"/>
<path d="M74.6407 265.18C74.6407 265.18 53.2807 300.79 60.6407 392.04C60.6407 392.04 77.2607 401.53 74.6407 265.18Z" fill="#5F954F"/>
<path d="M98.3793 278.1C98.3793 278.1 78.8593 359.1 99.6993 392.18C99.6993 392.18 107.869 307.12 98.3793 278.1Z" fill="#5F954F"/>
<path d="M117.201 279.16C117.201 279.16 106.201 307.92 131.111 377.8C131.111 377.8 127.281 293.93 117.201 279.16Z" fill="#5F954F"/>
<path d="M58.6797 138.59C58.6797 138.59 67.7797 164.83 88.0897 165.59L87.5897 197.04H101.06L100.88 165.46C100.88 165.46 120.27 164.73 131.34 139.18L125.67 138.31C125.67 138.31 111.83 156.89 95.0097 155.83C95.0097 155.83 75.8297 155.83 64.4897 138.31L58.6797 138.59Z" fill="#C22139"/>
<path d="M62.6389 189.16C62.6389 189.16 85.4789 205.39 124.999 190.81L125.439 190.64L130.439 216.99L127.439 218.86L126.119 249.86L115.699 215.18C115.699 215.18 110.819 219.18 112.539 245.64C114.259 272.1 105.419 222.17 105.419 222.17C105.419 222.17 102.419 199.17 99.8789 221.27C97.3389 243.37 96.7489 242.27 96.7489 242.27C96.7489 242.27 95.1489 204.68 90.1289 207.85C85.1089 211.02 78.1289 247.67 78.1289 247.67C78.1289 247.67 76.3989 192.85 67.1289 205.47C57.8589 218.09 56.6289 224.28 56.6289 224.28L62.6389 189.16Z" fill="#5F954F"/>
<path d="M56.6292 284.7L38.8992 346.02L32.1992 390.39C32.1992 390.39 51.8492 300.52 51.3192 345.62L55.1392 321.49L56.6292 284.7Z" fill="#ACD980"/>
<path d="M64.4883 138.34C64.4883 138.34 91.8783 178.21 125.668 138.34L110.198 130.91C110.198 130.91 104.658 131.1 105.458 112.61C105.458 112.61 94.6683 120.42 84.9783 112.61C84.9783 112.61 86.7583 132.19 76.9783 132.39L64.4883 138.34Z" fill="#F2A07D"/>
<path d="M94.5898 127.74C94.5898 127.74 85.9798 125.47 84.5898 122.8L84.7299 112.19C84.7299 112.19 95.4698 118.97 105.45 111.85L105.88 123.4C105.88 123.4 99.0298 127.64 94.5798 127.74" fill="#A86D58"/>
<path d="M69.4291 91.44C69.4291 91.44 69.4291 91.59 69.5491 91.86C70.4991 95.03 77.2291 115.1 95.0791 115.64C95.0791 115.64 103.079 116.7 114.599 103.54C113.621 101.01 113.612 98.2085 114.573 95.6725C115.535 93.1365 117.4 91.0451 119.809 89.8C119.809 89.8 127.679 83.96 118.809 74.53C118.809 74.53 117.659 49.71 111.129 47.14C111.129 47.14 103.239 41.93 94.1291 44.7C94.1291 44.7 82.5892 40.7 74.3492 50.04C74.3492 50.04 60.5092 64.15 69.3492 82.04C69.3492 82.04 71.1292 88.37 69.3492 91.46" fill="#F2A07D"/>
<path d="M78.6602 74.09C78.6602 74.09 67.5201 73.09 67.1201 77C67.0262 77.4841 67.0399 77.9829 67.1604 78.4611C67.2809 78.9392 67.5051 79.385 67.8172 79.7668C68.1293 80.1485 68.5216 80.4569 68.9663 80.67C69.4109 80.8832 69.8971 80.9958 70.3902 81L81.5101 76L78.6602 74.09Z" fill="black"/>
<path d="M81.3617 75.88C81.3617 75.88 87.8917 80.99 81.3617 84.26C72.0017 88.94 69.6317 78.19 69.6317 78.19C69.6317 78.19 68.6317 73.25 81.3617 75.88Z" fill="#FFF1E7"/>
<path d="M78.4214 83.49C77.7837 83.492 77.1598 83.3046 76.6287 82.9515C76.0976 82.5984 75.6834 82.0956 75.4385 81.5069C75.1935 80.9181 75.1289 80.2698 75.2528 79.6442C75.3767 79.0187 75.6836 78.4441 76.1345 77.9931C76.5854 77.5422 77.1601 77.2353 77.7857 77.1114C78.4112 76.9875 79.0594 77.0521 79.6482 77.297C80.237 77.542 80.7398 77.9563 81.0929 78.4873C81.4459 79.0184 81.6334 79.6423 81.6314 80.28C81.6261 81.1297 81.2863 81.9432 80.6854 82.544C80.0845 83.1449 79.2711 83.4848 78.4214 83.49Z" fill="black"/>
<path d="M81.1107 79.33C81.1389 79.6012 81.0845 79.8746 80.9543 80.1142C80.8242 80.3538 80.6246 80.5484 80.3817 80.6724C80.1388 80.7964 79.8641 80.8439 79.5937 80.8087C79.3234 80.7735 79.07 80.6572 78.8669 80.4753C78.6639 80.2933 78.5207 80.0541 78.4562 79.7892C78.3918 79.5242 78.4091 79.2459 78.5058 78.991C78.6025 78.7361 78.7742 78.5164 78.9982 78.3609C79.2222 78.2055 79.488 78.1215 79.7607 78.12C79.9288 78.1106 80.0972 78.1344 80.2561 78.1901C80.415 78.2458 80.5614 78.3324 80.6868 78.4448C80.8122 78.5572 80.9142 78.6933 80.9869 78.8452C81.0597 78.9971 81.1017 79.1618 81.1107 79.33Z" fill="#F9F9F9"/>
<path d="M108.939 74.35C108.939 74.35 120.079 73.35 120.479 77.27C120.573 77.7541 120.559 78.2529 120.439 78.7311C120.318 79.2092 120.094 79.655 119.782 80.0367C119.47 80.4185 119.078 80.7269 118.633 80.94C118.188 81.1532 117.702 81.2658 117.209 81.27L106.199 76.28L108.939 74.35Z" fill="black"/>
<path d="M106.199 76.15C106.199 76.15 99.6691 81.25 106.199 84.52C115.559 89.21 117.929 78.46 117.929 78.46C117.929 78.46 118.929 73.51 106.199 76.15Z" fill="#FFF1E7"/>
<path d="M109.198 83.7499C109.833 83.7499 110.454 83.5617 110.982 83.209C111.51 82.8563 111.921 82.3549 112.164 81.7684C112.407 81.1818 112.47 80.5364 112.347 79.9138C112.223 79.2911 111.917 78.7191 111.468 78.2701C111.019 77.8212 110.447 77.5155 109.825 77.3917C109.202 77.2678 108.556 77.3314 107.97 77.5743C107.383 77.8173 106.882 78.2287 106.529 78.7566C106.177 79.2845 105.988 79.9051 105.988 80.54C105.991 81.3905 106.33 82.2055 106.931 82.8069C107.533 83.4083 108.348 83.7473 109.198 83.7499Z" fill="black"/>
<path d="M108.61 79.37C108.579 79.6438 108.633 79.9203 108.763 80.163C108.893 80.4058 109.094 80.6032 109.339 80.7293C109.584 80.8553 109.862 80.904 110.135 80.8689C110.408 80.8338 110.664 80.7166 110.869 80.5327C111.074 80.3489 111.219 80.1071 111.284 79.8393C111.348 79.5716 111.33 79.2905 111.231 79.0333C111.133 78.7761 110.959 78.5548 110.731 78.3989C110.504 78.2429 110.235 78.1596 109.96 78.16C109.621 78.1436 109.289 78.2614 109.036 78.4879C108.784 78.7144 108.631 79.0313 108.61 79.37Z" fill="#F9F9F9"/>
<path d="M96.2025 97.4C96.2025 97.4 90.3225 97.02 88.6025 98.27L87.4725 98.62L85.0625 99.31C85.0625 99.31 87.7525 103.68 96.0625 103.61C104.373 103.54 107.672 99.03 107.672 99.03L101.503 98.45C101.503 98.45 102.502 97.45 96.2425 97.45" fill="#D44A5F"/>
<path d="M96.0709 98.99L84.9609 99.32C88.4272 97.773 92.1662 96.9301 95.9609 96.84C99.9525 96.9524 103.901 97.6949 107.661 99.04L96.0709 98.99Z" fill="#B9374F"/>
<path d="M95.7205 81.28C95.4116 81.1569 95.0738 81.1253 94.7474 81.1891C94.4211 81.253 94.1201 81.4095 93.8804 81.64C93.0346 82.9763 92.5521 84.5102 92.4805 86.09C92.6705 87.64 91.8204 91.59 95.2404 91.73C98.6604 91.87 98.1104 86.0601 98.1104 86.0601C98.1104 86.0601 98.0105 82.06 95.7205 81.28Z" fill="#B9374F"/>
<path d="M75.1994 131.11C78.1994 129.76 85.1293 125.72 75.4193 119.75C75.3228 119.69 75.2418 119.609 75.1827 119.512C75.1236 119.415 75.0883 119.306 75.0795 119.193C75.0707 119.08 75.0888 118.966 75.1322 118.861C75.1756 118.757 75.2432 118.664 75.3294 118.59C77.3994 116.76 82.4393 111.4 75.2393 107.76C66.3993 103.28 69.3693 92.28 69.3693 92.28C69.3693 92.28 72.8793 90.79 67.4893 74.72C63.7193 63.5 75.7894 48.86 75.7894 48.86C75.7894 48.86 81.2994 42.4 94.2194 44.74C94.2194 44.74 104.219 41.86 111.869 48.02C111.869 48.02 114.789 49.35 117.529 74.37C117.529 74.37 124.949 82.53 117.629 90.94C110.309 99.35 115.749 105.94 115.749 105.94C115.749 105.94 100.219 122.16 115.259 125.03C115.259 125.03 122.869 130.03 113.969 131.96C113.969 131.96 141.759 133.44 136.619 116.13C136.619 116.13 122.179 103.27 139.979 91.9C139.979 91.9 150.559 84.9 132.269 58.67C132.269 58.67 124.849 50.86 125.739 31.57C125.701 27.3226 124.477 23.1703 122.205 19.5816C119.933 15.9929 116.703 13.1106 112.879 11.26C112.879 11.26 109.119 1.26001 91.2594 0.120009C73.3994 -1.01999 63.8894 14.12 63.8894 14.12C63.8894 14.12 64.2894 22.62 59.3394 26.12C58.4761 28.0006 58.2871 30.1212 58.8044 32.1247C59.3217 34.1283 60.5136 35.8924 62.1793 37.12C62.1793 37.12 51.7593 50.12 56.0493 61.51C58.626 68.3751 60.2217 75.5693 60.7894 82.88C60.7894 82.88 43.5894 93.36 56.8994 102.59C56.8994 102.59 37.8993 110.83 56.3093 120.59C56.3093 120.59 70.8193 124.22 73.3093 126.79L73.7494 130.37C73.7658 130.527 73.8191 130.678 73.9049 130.81C73.9907 130.942 74.1066 131.052 74.2431 131.131C74.3796 131.21 74.533 131.256 74.6905 131.264C74.848 131.273 75.0052 131.244 75.1494 131.18" fill="#833B29"/>
<path d="M152.858 297.68C152.858 297.68 149.198 299.97 149.428 301.68C149.658 303.39 156.868 322.82 158.018 324.6C157.838 325.19 149.208 354.6 162.808 340.52C162.998 341.52 165.958 357.16 173.218 356.2C180.718 355.2 183.798 346.34 182.218 335.35C182.218 335.35 181.308 326.66 177.808 323.15C177.808 322.68 179.218 305.32 177.078 296.53C176.852 295.619 176.447 294.763 175.887 294.009C175.328 293.256 174.625 292.62 173.818 292.14L172.818 292.08C165.758 291.935 158.813 293.883 152.858 297.68Z" fill="#897879"/>
<path d="M14.8407 292.01H13.8407C13.0284 292.481 12.3171 293.108 11.7474 293.854C11.1777 294.601 10.7608 295.452 10.5207 296.36C8.24068 305.11 9.35068 322.48 9.39068 322.96C5.83068 326.41 4.7907 335.09 4.7907 335.09C3.0107 346.09 5.94065 354.97 13.4307 356.09C20.6807 357.16 23.8707 341.59 24.0807 340.56C37.4707 354.81 29.2907 325.31 29.0807 324.71C30.2507 322.95 37.7607 303.61 38.0207 301.93C38.2807 300.25 34.6507 297.93 34.6507 297.93C28.7748 294.048 21.8831 291.988 14.8407 292.01Z" fill="#897879"/>
</g>
<defs>
<clipPath id="clip0">
<rect width="186.46" height="555.71" fill="white"/>
</clipPath>
</defs>
</svg>
