<svg id="Calque_24" data-name="Calque 24" xmlns="http://www.w3.org/2000/svg" xmlns:xlink="http://www.w3.org/1999/xlink" viewBox="0 0 314.77 894.1"><defs><style>.cls-1{fill:#dfddde;}.cls-2{fill:#2b79d6;}.cls-3{fill:#125faa;}.cls-4{fill:#897879;}.cls-5{fill:#592f05;}.cls-13,.cls-6{fill:none;}.cls-7{fill:#a78c76;}.cls-8{fill:#d2d1d2;}.cls-9{fill:#c4c3c4;}.cls-10{fill:#fcd8be;}.cls-11{fill:#f69980;}.cls-12{fill:url(#Dégradé_sans_nom_18);}.cls-13{stroke:#000;stroke-miterlimit:10;stroke-width:2px;}.cls-14{fill:#e6bfb0;}.cls-15{fill:#020202;}.cls-16{fill:#fff;}.cls-17{fill:#fc9c81;}</style><radialGradient id="Dégradé_sans_nom_18" cx="904.1" cy="303.48" r="0" gradientUnits="userSpaceOnUse"><stop offset="0" stop-color="#ce0b5a"/><stop offset="0.55" stop-color="#c43193"/><stop offset="1" stop-color="#bc51c4"/></radialGradient></defs><title>persodimitri</title><g id="corps"><g id="corps-2" data-name="corps"><path class="cls-1" d="M851.85,736s-14.26,127.64-12,164.06l57.06-.38S901.41,755.87,908.17,751l-48.43-19.15Z" transform="translate(-773.71 -133.24)"/><path class="cls-1" d="M966,746.48s17.27,134.78,11.26,153.92h58.19s-4.13-140.4-14.26-167.81Z" transform="translate(-773.71 -133.24)"/><path class="cls-1" d="M842.47,455.07l.56-1.6-36-27.78-.28-.18s-40.83,43.17-29.94,129l10.33,6.38,38.1-3.94S810.93,505.09,842.47,455.07Z" transform="translate(-773.71 -133.24)"/><path class="cls-1" d="M1037.26,530.74l-3,19.58,44.17.38,5.61,3s14.47-84.94-33.07-154.25l-2.84,12.35L1014.4,430S1047.34,472.47,1037.26,530.74Z" transform="translate(-773.71 -133.24)"/><g id="t-shirt"><path class="cls-2" d="M1029.4,648.25l13.54,43.89,2.36,15.67A20.39,20.39,0,0,1,1034,729.25c-30.64,14.68-109.9,42.77-200.74-3a19.87,19.87,0,0,1-10.6-21c3.66-22,12.53-65.89,30-106.43l71.64,23,66.44-10.35,13.65-4.24" transform="translate(-773.71 -133.24)"/><path class="cls-2" d="M899.91,392.66,842.15,380.2c-1.45-.31-.59-1.37-1.71-.39l-41.05,35,7.32,10.7s34.45,28.15,44.58,34.53l1.88-1.87s-13.09,92.35-3.1,119.1c0,0,5.91,22.8,65.6,25.9,10.53.55,79,2.46,86.14-7.29,35.93-49,6.93-151.94,6.93-151.94l.2-3.95,1.88,3,54.43-21.12,1.29-5.86s-19.66-34.81-41.43-44.2c0,0-28.72,13.89-56.31,20.27C968.8,392.09,935.2,419.12,899.91,392.66Z" transform="translate(-773.71 -133.24)"/><path class="cls-3" d="M920.34,603.34l-9.45-38.41s-50.38-6.66-62.91-58.61c0,0-2.85,55.86,1.11,67.83,3.66,11.07,12.12,28.73,63.09,28.77" transform="translate(-773.71 -133.24)"/><path class="cls-3" d="M990.66,611.5l-65.66,63a2.22,2.22,0,0,0,2.88,3.37c25.2-19.28,60.39-48.33,72.38-68.48" transform="translate(-773.71 -133.24)"/></g><path class="cls-4" d="M821.07,547.7s8.82,1.32,9.76,4.69,3.38,46.37,2.63,50.5c0,0,41.86,49.74,3.94,34.07,0,0,8.26,34.07-6.76,38.38s-28.15-10-34.16-32.1c0,0-5.44-17.26-1.69-26.74,0,0-22.43-41.86-21-57.82l3-4.22A77.91,77.91,0,0,1,821.07,547.7Z" transform="translate(-773.71 -133.24)"/><path class="cls-5" d="M1003.59,589.78S863.87,606,850.07,577.27c0,0-2.89,1.31,1.23,21a6.28,6.28,0,0,0,2.23,3.62c6.55,5.2,31.06,22.14,70.69,20,0,0,57.76-6.06,76-12.45C1015.32,604.13,1006,589.44,1003.59,589.78Z" transform="translate(-773.71 -133.24)"/><path class="cls-6" d="M924.22,621.85s30,38.48,99,81.84" transform="translate(-773.71 -133.24)"/><line class="cls-6" x1="196.03" y1="531.31" x2="189.27" y2="527.65"/><path class="cls-7" d="M826.89,900l77.52.18L910,932.69l-13.51.19s-5.44,29.09-4.88,34.72c0,0,10.89,19.52,5.82,28,0,0-71.52,42.61-100.05,28.34,0,0-2.82-6.75,8.82-15,0,0,29.85-32.1,29.66-34.17s1.31-21.21-2.63-38.48l-5.82-1.31Z" transform="translate(-773.71 -133.24)"/><path class="cls-7" d="M971.24,900l-5.64,31.53,12.77.75L984,968s-16.52,27.4-1.13,31.16c0,0,78.09,40.54,95,24.4,0,0,4.13-2.25-4.88-10.89s-41.67-33.41-34.54-55.94l2.63-21,6-.37.37-34.92h-70.2" transform="translate(-773.71 -133.24)"/><path class="cls-8" d="M838.39,381.58,862.18,361s-33.82-59.1-29.31-124.42c0,0,7.51-31.34,50.68-62.5l90.1,7.32s74.52,89.91,47.86,139.09l-15.36,40,19,11.26s-43.93,21.4-59.32,23.28c0,0-30.88,24-62.79,1.12Z" transform="translate(-773.71 -133.24)"/><path class="cls-9" d="M860.3,322.45s39.23,45.62,71.52,49.37,72.26-48.38,72.26-48.38-36.27,27.64-71.89,28.48c-34.2.82-69.26-30.59-69.26-30.59" transform="translate(-773.71 -133.24)"/><path class="cls-4" d="M1042,539.85s-8.87,1-9.93,4.33-5,46.06-4.46,50.34c0,0,0,0,0,0-.86,1-43.15,47.94-5.28,33.93a.06.06,0,0,1,.08.07c-.57,2.09-9,33.8,5.38,38.5,14.85,4.86,28.49-8.92,35.3-30.84,0,0,6.06-17,2.67-26.64,0,0,0,0,0,0,.5-.85,18.55-31.94,22.4-50.22a14.68,14.68,0,0,0-2.14-11.09h0l-1.82-1C1083.81,547,1066.45,537,1042,539.85Z" transform="translate(-773.71 -133.24)"/></g><g id="Calque_13" data-name="Calque 13"><path class="cls-6" d="M931.82,356.43s-102.46-18.1-101.16-97.09" transform="translate(-773.71 -133.24)"/><line class="cls-6" x1="56.95" y1="126.11" x2="53.75" y2="117.7"/></g><g id="Tete"><path class="cls-10" d="M925.66,134.77s-9.57,4.81-78.54,46.24c-1.54.92-6.73,10.3-7.29,12-3.81,11.57-23.12,35.86-9.17,66.75,0,0-9.77,65.47,96.25,96.91a15.86,15.86,0,0,0,7.71.35c19.82-4.08,106.91-26.79,98-109.26,0,0,7-20,10-22,0,0,3-27-9-45C1033.66,180.77,948.66,131.77,925.66,134.77Z" transform="translate(-773.71 -133.24)"/><path class="cls-10" d="M885.27,339.16" transform="translate(-773.71 -133.24)"/><path class="cls-10" d="M982.12,338.41" transform="translate(-773.71 -133.24)"/></g><g id="cheveux"><path class="cls-11" d="M997.75,206.31s2.91,3,8.91,4c5.23.88,5.9,8.59,6,10.55a3.31,3.31,0,0,1,0,.77c-.31,2.39-1.76,17.83,11.63,23.51a4.52,4.52,0,0,1,.69.36c1.46,1,8.34,4.95,10.41-3.6a53.55,53.55,0,0,1,6.77-15.76,4.78,4.78,0,0,0,.7-1.93c.73-5.65,3.27-31.47-9.15-43.9-14-14-54.84-47.38-103.91-47.09-32.44.19-60-2.88-85.36,27.34-1.35,1.61-9.71,21.27-15.29,30.28-6.9,11.16-11.15,37.65.23,65.42a4.63,4.63,0,0,0,5.53,2.74c3-.9,6.1-3.7,2.92-12.06a4.71,4.71,0,0,1,.78-4.67c2-2.39,4.64-6.56,3.88-10.92a4.52,4.52,0,0,1,2.35-4.84c2.75-1.43,6.11-5.13,7.53-14.49a4.61,4.61,0,0,1,2.37-3.41,8.94,8.94,0,0,0,4.44-5.65,4.65,4.65,0,0,1,6.3-2.9c6,2.53,16.23,3.63,29.68-7.57a4.62,4.62,0,0,1,6,.09c3,2.57,9.45,4.85,22.44-.76a4.63,4.63,0,0,1,2.32-.38c5.51.53,28.69,2.28,37.58-4.71a4.61,4.61,0,0,1,4.82-.6c3,1.39,9.07,3.09,21.43,3.18a5.76,5.76,0,0,0,1.53-.25c1.28-.36,4.42.17,5.21,13.63" transform="translate(-773.71 -133.24)"/></g><g id="bouchefemme"><path class="cls-12" d="M904.1,303.48" transform="translate(-773.71 -133.24)"/><path class="cls-13" d="M918.75,308.69s14.07,10.14,28.85-.28" transform="translate(-773.71 -133.24)"/></g><g id="nez"><path class="cls-14" d="M923.31,276s7.79,1.41,10.41,3.66c0,0,7.58-5.16,10.77-3.1,0,0-.28,2.82-10.77,5.63C933.72,282.22,920.56,280.18,923.31,276Z" transform="translate(-773.71 -133.24)"/></g><g id="yeux"><circle class="cls-15" cx="116.45" cy="91.61" r="8.5"/><circle class="cls-15" cx="193.45" cy="91.61" r="8.5"/><path class="cls-16" d="M899.92,296.86h63s-8,23-30,23S899.92,296.86,899.92,296.86Z" transform="translate(-773.71 -133.24)"/><path class="cls-17" d="M880.92,291.86s20.61,0,28.75-5.09a6,6,0,0,1,3-1c5.93-.21,24.07-1.14,19.27,6.05-2,3-10.87-1.34-26.93,6.33S880.92,291.86,880.92,291.86Z" transform="translate(-773.71 -133.24)"/><path class="cls-17" d="M966.92,289.86S940,277.36,935.18,291a.64.64,0,0,0,.57.86,85.69,85.69,0,0,1,29.45,6.67c.72.31,7.19.31,7.72.31,3,0,9.66-.7,11.75-5.18a.63.63,0,0,0-.54-.87C980.77,292.58,970.92,292.86,966.92,289.86Z" transform="translate(-773.71 -133.24)"/><path class="cls-17" d="M928.92,322.86s0,10-13,9c0,0,10,20,18,21,0,0-1-5,11-20a9.94,9.94,0,0,1-8-9Z" transform="translate(-773.71 -133.24)"/></g></g></svg>