<svg xmlns="http://www.w3.org/2000/svg" width="42" height="43" fill="none"><path d="M35.837 27.698c-2.237-2.28-4.9-3.97-7.804-4.99a12.17 12.17 0 0 0 5.155-9.976c0-6.675-5.326-12.106-11.873-12.106S9.442 6.056 9.442 12.73a12.17 12.17 0 0 0 5.155 9.976c-2.905 1.022-5.567 2.7-7.804 4.99C2.914 31.654.777 36.912.777 42.505h3.21c0-9.742 7.774-17.668 17.328-17.668s17.33 7.926 17.33 17.668h3.21c0-5.593-2.136-10.852-6.015-14.807zm-14.522-6.133c-4.777 0-8.664-3.963-8.664-8.834s3.887-8.834 8.664-8.834S29.98 7.86 29.98 12.73s-3.887 8.834-8.664 8.834z" fill="#d7dde0"/></svg>