<svg width="52" height="114" viewBox="0 0 52 114" fill="none" xmlns="http://www.w3.org/2000/svg">
<g clip-path="url(#clip0)">
<path d="M39.3759 24.1705C39.3759 24.1705 36.7404 14.5269 36.6094 12.6779L39.3759 24.1705Z" fill="#599A49"/>
<path d="M43.2793 45.2901C43.2793 45.2901 38.7559 32.8716 38.6192 29.592C38.6192 29.592 40.1084 26.9984 39.1435 22.9714C38.1786 18.9443 36.6698 15.0818 36.6336 13.2357C36.5973 11.3895 35.9531 5.23738 35.9531 5.23738C35.9531 5.23738 36.2125 0.242624 36.6336 0.242624C36.6336 0.242624 38.6304 -0.315138 38.9873 4.68518C39.3443 9.6855 41.7762 23.2474 41.9937 23.3562C42.2112 23.465 45.6637 28.8725 45.3876 32.5593C45.1116 36.2461 46.8769 43.9459 46.8769 43.9459L43.2793 45.2901Z" fill="#8DC36B"/>
<path d="M45.6325 37.0743H42.286L42.4505 35.0943C42.4505 35.0943 40.4983 33.329 40.741 30.1023C40.9836 26.8757 39.3772 24.1705 39.3772 24.1705L38.2617 28.2255L38.8557 31.0979L40.186 36.0453L42.7461 43.6029L43.17 45.0865L46.8847 43.9571L45.6325 37.0743Z" fill="#599A49"/>
<path d="M43.0938 45.0252C43.0938 45.0252 43.1635 46.5925 43.5065 46.4865L47.4108 45.3013C47.4108 45.3013 47.6618 43.9069 46.7359 43.7005C45.81 43.4941 43.1105 45.0252 43.1105 45.0252" fill="#C22139"/>
<path d="M39.9316 40.7834C39.9316 40.7834 40.4475 44.4842 43.0299 44.5539L39.7503 33.7835C39.7503 33.7835 39.424 38.1731 39.9176 40.7834" fill="#C22139"/>
<path d="M42.2909 29.5083C42.2909 29.5083 41.4097 41.8209 43.808 43.8846C43.808 43.8846 46.7056 42.3061 42.2909 29.5083Z" fill="#C22139"/>
<path d="M46.2661 43.087C46.2661 43.087 48.7956 41.4499 48.776 40.6775C48.7565 39.905 44.9805 32.9525 44.9805 32.9525L46.2661 43.087Z" fill="#C22139"/>
<path d="M15.9332 12.452L17.5563 14.3595L13.8611 29.7872L12.8906 24.3183" fill="#C22139"/>
<path d="M9.25827 45.0642C9.25827 45.0642 13.7817 32.6457 13.9211 29.3633C13.9211 29.3633 12.4319 26.7725 13.3969 22.7455C14.3618 18.7184 15.8677 14.8559 15.9068 13.0098C15.9458 11.1636 16.5956 5.00311 16.5956 5.00311C16.5956 5.00311 16.339 0.0111468 15.9151 0.0111468C15.9151 0.0111468 13.9211 -0.546598 13.5614 4.45372C13.2016 9.45404 10.7726 23.016 10.5551 23.1387C10.3375 23.2614 6.88778 28.6549 7.16109 32.3417C7.43439 36.0285 5.67188 43.7312 5.67188 43.7312L9.25827 45.0642Z" fill="#8DC36B"/>
<path d="M6.91124 36.8345H10.2578L10.0933 34.8433C10.0933 34.8433 12.0454 33.078 11.8028 29.8513C11.5602 26.6247 13.1609 23.9446 13.1609 23.9446L14.2765 27.9996L13.6852 30.872L12.3522 35.8194L9.81437 43.377L9.39047 44.8579L5.67578 43.7423L6.91124 36.8345Z" fill="#599A49"/>
<path d="M9.45133 44.7993C9.45133 44.7993 9.38161 46.3638 9.0358 46.2607L5.14821 45.0754C5.14821 45.0754 4.89721 43.681 5.8231 43.4746C6.74898 43.2683 9.44854 44.7993 9.44854 44.7993" fill="#C22139"/>
<path d="M12.6224 40.5575C12.6224 40.5575 12.1036 44.2583 9.53516 44.3252L12.8009 33.5549C12.8009 33.5549 13.1271 37.9444 12.6363 40.5547" fill="#C22139"/>
<path d="M6.27172 42.8611C6.27172 42.8611 3.74507 41.2241 3.7618 40.4516C3.77853 39.6791 7.55458 32.7266 7.55458 32.7266L6.27172 42.8611Z" fill="#C22139"/>
<path d="M10.8093 29.5083C10.8093 29.5083 9.97263 41.6173 7.5659 43.6782C7.5659 43.6782 6.39739 42.3061 10.8093 29.5083Z" fill="#C22139"/>
<path d="M36.6008 12.6807L34.9805 14.5854L38.6728 30.0131L39.6461 24.5442" fill="#C22139"/>
<path d="M15.9125 0.019516L16.685 0.114335L20.1961 4.71307L25.8769 7.13933L29.547 6.58714L33.9588 3.99635L36.1369 0.766915L36.7727 0.574488V12.848L34.5389 16.1025L26.4932 17.5388L19.0109 16.7663L16.3615 14.0081L15.0117 10.946L15.9125 0.019516Z" fill="#8DC36B"/>
<path d="M-0.00224647 107.6C-0.00224647 107.6 7.64744 78.106 10.7374 53.4976L17.4668 14.1755C17.4668 14.1755 18.8082 16.6017 26.3296 16.1974C33.851 15.793 34.9749 14.5882 34.9749 14.5882L42.1756 52.7948C42.1756 52.7948 51.6575 104.923 51.9922 106.359C51.9922 106.359 48.6456 113.225 43.5533 110.771C38.4609 108.317 24.6591 113.393 24.6591 113.393C24.6591 113.393 9.83108 115.314 -0.0078125 107.609" fill="#8DC36B"/>
<path d="M1.22429 102.684C1.22429 102.684 4.7828 121.427 12.4325 75.6797C12.4325 75.6797 10.2238 98.481 12.4325 104.51C12.4325 104.51 17.4328 89.6544 16.6966 86.1238C16.6966 86.1238 17.1121 101.992 19.1256 103.135C19.1256 103.135 25.7434 80.7414 25.4116 69.1567C25.4116 69.1567 28.4458 97.8814 31.8676 101.537C31.8676 101.537 35.6186 93.2073 36.3297 69.4328C36.3297 69.4328 40.4655 93.0958 42.1221 94.4762C42.8615 91.371 43.2136 88.1861 43.1706 84.9943C43.1706 84.9943 45.5969 94.9224 48.4108 95.5304C48.4108 95.5304 49.4594 91.8631 49.0188 90.2624L51.9944 106.343C51.9944 106.343 49.1387 114.182 42.6631 110.42C42.6631 110.42 38.9651 108.654 24.667 113.373C24.667 113.373 12.8926 114.575 6.21625 111.1C6.21625 111.1 0.663735 108.618 0 107.589L1.22429 102.684Z" fill="#5D934D"/>
<path d="M20.8138 60.1963L18.7528 85.8672L18.0194 78.7335L14.3047 86.7847L14.7453 73.4905L16.2903 77.2247L20.8138 60.1963Z" fill="#ACD980"/>
<path d="M31.1489 56.8497C31.1489 56.8497 34.8998 71.0726 34.4564 71.781L32.362 67.4723L32.8193 83.7282L30.8672 61.8472L31.1489 56.8497Z" fill="#ACD980"/>
<path d="M37.6914 60.5644L41.8467 81.8206L42.3627 74.2463L45.7092 81.6756L38.832 45.6722L40.5973 67.1488L37.6914 60.5644Z" fill="#ACD980"/>
<path d="M20.8151 35.3732C20.8151 35.3732 14.8582 45.3041 16.9108 70.7519C16.9108 70.7519 21.5458 73.3985 20.8151 35.3732Z" fill="#5F954F"/>
<path d="M27.435 38.9763C27.435 38.9763 21.9913 61.5656 27.8032 70.7909C27.8032 70.7909 30.0816 47.0694 27.435 38.9763Z" fill="#5F954F"/>
<path d="M32.6825 39.2719C32.6825 39.2719 29.6148 47.2925 36.5618 66.7806C36.5618 66.7806 35.4937 43.391 32.6825 39.2719Z" fill="#5F954F"/>
<path d="M16.3633 0.0697158C16.3633 0.0697158 18.9011 7.38753 24.5652 7.59948L24.4257 16.3703H28.1822L28.132 7.56322C28.132 7.56322 33.5395 7.35965 36.6267 0.234263L35.0455 -0.00836182C35.0455 -0.00836182 31.1858 5.17322 26.495 4.87761C26.495 4.87761 21.1461 4.87762 17.9836 -0.00836182L16.3633 0.0697158Z" fill="#C22139"/>
<path d="M17.469 14.1727C17.469 14.1727 23.8387 18.6989 34.86 14.6328L34.9827 14.5854L36.3771 21.9339L35.5405 22.4554L35.1723 31.1007L32.2664 21.4292C32.2664 21.4292 30.9055 22.5447 31.3852 29.9238C31.8648 37.303 29.3995 23.3785 29.3995 23.3785C29.3995 23.3785 28.5629 16.9643 27.8545 23.1275C27.1462 29.2908 26.9816 28.984 26.9816 28.984C26.9816 28.984 26.5354 18.5009 25.1355 19.385C23.7355 20.269 21.7889 30.49 21.7889 30.49C21.7889 30.49 21.3064 15.2018 18.7212 18.7212C16.136 22.2407 15.793 23.967 15.793 23.967L17.469 14.1727Z" fill="#5F954F"/>
<path d="M15.7935 40.8169L10.849 57.9178L8.98047 70.2917C8.98047 70.2917 14.4605 45.2288 14.3127 57.8063L15.378 51.0769L15.7935 40.8169Z" fill="#ACD980"/>
</g>
<defs>
<clipPath id="clip0">
<rect width="52" height="113.596" fill="white"/>
</clipPath>
</defs>
</svg>
