<svg width="52" height="114" viewBox="0 0 52 114" fill="none" xmlns="http://www.w3.org/2000/svg">
<mask id="path-1-inside-1" fill="white">
<path d="M39.3837 24.1486C39.3837 24.1486 36.7483 14.517 36.6172 12.6704Z"/>
</mask>
<path d="M39.3837 24.1486C39.3837 24.1486 36.7483 14.517 36.6172 12.6704Z" fill="#599A49"/>
<path d="M39.3837 24.1486C40.3482 23.8847 40.3482 23.8847 40.3482 23.8847C40.3482 23.8846 40.3481 23.8845 40.3481 23.8844C40.348 23.8841 40.3479 23.8837 40.3478 23.8831C40.3475 23.882 40.347 23.8803 40.3464 23.878C40.3451 23.8735 40.3433 23.8666 40.3408 23.8576C40.3359 23.8395 40.3285 23.8126 40.3189 23.7773C40.2997 23.7067 40.2714 23.6027 40.2354 23.4697C40.1633 23.2037 40.0601 22.8213 39.9359 22.3566C39.6874 21.4269 39.3548 20.1689 39.0184 18.8541C38.6816 17.5381 38.3423 16.1706 38.0796 15.0203C37.8095 13.8374 37.6409 12.9693 37.6147 12.5996L35.6197 12.7412C35.659 13.2948 35.869 14.3231 36.1298 15.4655C36.3982 16.6405 36.7423 18.0271 37.0808 19.3499C37.4196 20.6738 37.7541 21.9392 38.0038 22.8731C38.1286 23.3402 38.2324 23.7248 38.305 23.9926C38.3412 24.1266 38.3697 24.2314 38.3892 24.3028C38.3989 24.3385 38.4064 24.3658 38.4114 24.3843C38.4139 24.3936 38.4158 24.4006 38.4171 24.4053C38.4178 24.4077 38.4183 24.4095 38.4186 24.4107C38.4188 24.4113 38.4189 24.4117 38.419 24.4121C38.419 24.4122 38.4191 24.4123 38.4191 24.4124C38.4191 24.4125 38.4191 24.4126 39.3837 24.1486Z" fill="#7A56B4" mask="url(#path-1-inside-1)"/>
<path d="M36.4655 5.25691L36.4623 5.22655L36.4632 5.21052C36.4652 5.17448 36.4681 5.12143 36.4721 5.05379C36.4799 4.91851 36.4916 4.72499 36.507 4.49268C36.5377 4.02763 36.5829 3.40908 36.6411 2.79182C36.6995 2.17148 36.7699 1.56466 36.8496 1.11804C36.8772 0.963612 36.9042 0.838468 36.9294 0.743277C37.0314 0.763093 37.1812 0.81761 37.3516 0.969557C37.7486 1.32361 38.321 2.26953 38.4964 4.72332C38.6769 7.24774 39.3782 11.9051 40.0576 15.9268C40.398 17.9418 40.7342 19.8052 40.9993 21.1732C41.1317 21.8566 41.2471 22.4198 41.3367 22.8177C41.3813 23.0154 41.421 23.1789 41.4544 23.298C41.4706 23.3559 41.4884 23.4141 41.5072 23.4639C41.5162 23.4874 41.5305 23.523 41.5508 23.5601C41.5609 23.5786 41.5784 23.6086 41.6044 23.6413C41.6167 23.6568 41.6417 23.6869 41.6804 23.719C41.6826 23.7217 41.6852 23.7249 41.6882 23.7285C41.7154 23.7625 41.7562 23.8176 41.8103 23.8955C41.9175 24.05 42.0633 24.275 42.2344 24.5581C42.5763 25.1239 43.0112 25.9088 43.4309 26.8034C44.2818 28.6169 45.0245 30.7863 44.8968 32.4895C44.7536 34.3997 45.1375 37.2995 45.5436 39.6781C45.7483 40.8767 45.9615 41.959 46.1235 42.7416C46.1945 43.0845 46.2557 43.3701 46.3022 43.583L43.5857 44.5967C43.5784 44.5763 43.5709 44.5553 43.5631 44.5337C43.4395 44.1891 43.2626 43.6929 43.05 43.0871C42.6245 41.8753 42.0561 40.2262 41.4835 38.4755C40.9107 36.7239 40.3353 34.8753 39.8952 33.2632C39.4748 31.7239 39.1907 30.4449 39.1341 29.6722C39.1352 29.67 39.1364 29.6677 39.1375 29.6655C39.1813 29.5767 39.2406 29.4489 39.3077 29.2844C39.4417 28.9553 39.6068 28.4785 39.7395 27.8723C40.005 26.6585 40.1399 24.9283 39.6375 22.8343C39.2425 21.1878 38.7565 19.5666 38.3205 18.112C38.2196 17.7753 38.1214 17.4476 38.0276 17.1306C37.5186 15.4106 37.1578 14.0575 37.1413 13.2176C37.1227 12.2732 36.9504 10.2554 36.7854 8.49521C36.7025 7.61042 36.6207 6.78353 36.5596 6.17791C36.5291 5.87507 36.5038 5.62748 36.4861 5.45554L36.4655 5.25691Z" fill="#AD0707" stroke="#7A56B4"/>
<path d="M41.7955 36.9949L41.7504 37.5364H42.2938H45.2232L46.3207 43.5616L43.5188 44.4125L43.2346 43.4193L43.2313 43.4077L43.2274 43.3962L40.6725 35.8632L39.3502 30.9517L38.7836 28.2152L39.508 25.5851C39.5666 25.7337 39.6262 25.8941 39.6851 26.0652C40.0427 27.1037 40.3647 28.5139 40.2502 30.0356C40.1204 31.7594 40.5783 33.101 41.0731 34.0129C41.3199 34.4678 41.5758 34.8158 41.7725 35.0526C41.8353 35.1281 41.8922 35.1925 41.941 35.2455L41.7955 36.9949Z" fill="#7F0808" stroke="#7A56B4"/>
<mask id="path-5-inside-2" fill="white">
<path d="M43.0977 44.9773C43.0977 44.9773 43.1674 46.5426 43.5104 46.4368L47.4147 45.253C47.4147 45.253 47.6657 43.8604 46.7398 43.6543C45.8139 43.4481 43.1144 44.9773 43.1144 44.9773"/>
</mask>
<path d="M43.0977 44.9773C43.0977 44.9773 43.1674 46.5426 43.5104 46.4368L47.4147 45.253C47.4147 45.253 47.6657 43.8604 46.7398 43.6543C45.8139 43.4481 43.1144 44.9773 43.1144 44.9773" fill="black"/>
<path d="M43.5104 46.4368L43.2202 45.4798L43.2156 45.4812L43.5104 46.4368ZM47.4147 45.253L47.7049 46.21L48.2903 46.0325L48.3988 45.4304L47.4147 45.253ZM43.0977 44.9773C42.0986 45.0218 42.0987 45.0219 42.0987 45.022C42.0987 45.0221 42.0987 45.0222 42.0987 45.0223C42.0987 45.0225 42.0987 45.0227 42.0987 45.0229C42.0987 45.0234 42.0987 45.024 42.0988 45.0247C42.0988 45.026 42.0989 45.0277 42.099 45.0298C42.0992 45.034 42.0995 45.0397 42.0999 45.0467C42.1006 45.0608 42.1017 45.0804 42.1031 45.1047C42.1061 45.1532 42.1106 45.2212 42.1173 45.3019C42.1303 45.4608 42.1522 45.6807 42.1879 45.9042C42.2206 46.1094 42.2758 46.3916 42.3777 46.637C42.4247 46.7502 42.5214 46.9564 42.709 47.1328C42.9395 47.3496 43.3397 47.536 43.8052 47.3923L43.2156 45.4812C43.3727 45.4327 43.5525 45.4262 43.7295 45.4779C43.8965 45.5267 44.0117 45.6125 44.0793 45.6761C44.1456 45.7384 44.1829 45.7948 44.1992 45.8216C44.2167 45.8503 44.2243 45.8687 44.2247 45.8698C44.2247 45.8698 44.2152 45.8454 44.2013 45.7875C44.1882 45.7331 44.1752 45.6662 44.1629 45.5892C44.1383 45.4346 44.1213 45.2698 44.1106 45.1385C44.1053 45.0741 44.1017 45.0206 44.0995 44.984C44.0984 44.9657 44.0976 44.9518 44.0972 44.9429C44.0969 44.9385 44.0968 44.9354 44.0967 44.9337C44.0967 44.9328 44.0966 44.9323 44.0966 44.9322C44.0966 44.9321 44.0966 44.9321 44.0966 44.9322C44.0966 44.9323 44.0966 44.9323 44.0966 44.9324C44.0967 44.9325 44.0967 44.9326 44.0967 44.9326C44.0967 44.9327 44.0967 44.9328 43.0977 44.9773ZM43.8005 47.3938L47.7049 46.21L47.1246 44.296L43.2202 45.4798L43.8005 47.3938ZM47.4147 45.253C48.3988 45.4304 48.3989 45.4301 48.399 45.4297C48.399 45.4296 48.399 45.4293 48.3991 45.429C48.3992 45.4286 48.3993 45.4281 48.3994 45.4275C48.3995 45.4265 48.3997 45.4254 48.4 45.4242C48.4004 45.4217 48.4009 45.4189 48.4014 45.4158C48.4025 45.4095 48.4037 45.4017 48.4051 45.3927C48.408 45.3747 48.4115 45.3512 48.4152 45.323C48.4225 45.2669 48.431 45.1906 48.4372 45.0998C48.4491 44.923 48.4539 44.6684 48.4146 44.3906C48.3428 43.8838 48.0458 42.9205 46.9571 42.6782L46.5225 44.6304C46.4819 44.6213 46.4285 44.5826 46.4046 44.5468C46.3977 44.5365 46.4197 44.5679 46.4344 44.6712C46.448 44.7673 46.4479 44.8738 46.4417 44.9646C46.4388 45.0076 46.4349 45.0417 46.4322 45.0625C46.4308 45.0728 46.4298 45.0795 46.4294 45.082C46.4292 45.0832 46.4292 45.0833 46.4294 45.0823C46.4295 45.0818 46.4296 45.081 46.4298 45.0799C46.4299 45.0793 46.43 45.0787 46.4301 45.078C46.4302 45.0776 46.4303 45.0773 46.4303 45.0769C46.4304 45.0767 46.4304 45.0764 46.4304 45.0763C46.4305 45.076 46.4306 45.0757 47.4147 45.253ZM46.9571 42.6782C46.451 42.5655 45.887 42.6993 45.4968 42.8158C45.0528 42.9483 44.583 43.1401 44.1688 43.3269C43.7502 43.5156 43.3654 43.7097 43.0867 43.8557C42.9467 43.929 42.8322 43.9909 42.7519 44.0349C42.7117 44.0569 42.6801 44.0744 42.658 44.0867C42.6469 44.0929 42.6383 44.0977 42.6322 44.1012C42.6291 44.1029 42.6267 44.1043 42.6249 44.1053C42.624 44.1058 42.6233 44.1062 42.6227 44.1065C42.6224 44.1067 42.6222 44.1068 42.622 44.1069C42.6219 44.107 42.6218 44.107 42.6217 44.1071C42.6216 44.1071 42.6215 44.1072 43.1144 44.9773C43.6073 45.8474 43.6072 45.8474 43.6071 45.8475C43.6071 45.8475 43.607 45.8475 43.607 45.8475C43.607 45.8475 43.607 45.8475 43.607 45.8475C43.6071 45.8475 43.6074 45.8473 43.6078 45.8471C43.6086 45.8466 43.6101 45.8458 43.6122 45.8446C43.6163 45.8423 43.6229 45.8386 43.6319 45.8336C43.6498 45.8236 43.677 45.8085 43.7125 45.7891C43.7834 45.7502 43.887 45.6943 44.0146 45.6274C44.271 45.4931 44.6189 45.3178 44.991 45.1501C45.3674 44.9803 45.7461 44.8285 46.0687 44.7323C46.4451 44.62 46.5657 44.64 46.5225 44.6304L46.9571 42.6782Z" fill="#7A56B4" mask="url(#path-5-inside-2)"/>
<mask id="path-7-inside-3" fill="white">
<path d="M39.9394 40.7408C39.9394 40.7408 40.4553 44.4369 43.0377 44.5065L39.7581 33.7496C39.7581 33.7496 39.4318 38.1337 39.9254 40.7408"/>
</mask>
<path d="M39.9394 40.7408C39.9394 40.7408 40.4553 44.4369 43.0377 44.5065L39.7581 33.7496C39.7581 33.7496 39.4318 38.1337 39.9254 40.7408" fill="black"/>
<path d="M43.0377 44.5065L43.0108 45.5062L44.3994 45.5436L43.9943 44.2149L43.0377 44.5065ZM39.7581 33.7496L40.7146 33.458L38.7609 33.6754L39.7581 33.7496ZM39.9394 40.7408C38.949 40.879 38.949 40.8794 38.9491 40.8797C38.9491 40.8799 38.9492 40.8802 38.9492 40.8805C38.9493 40.8811 38.9494 40.8817 38.9495 40.8824C38.9496 40.8837 38.9499 40.8853 38.9501 40.8871C38.9507 40.8907 38.9513 40.8951 38.9521 40.9005C38.9537 40.9112 38.9559 40.9255 38.9588 40.943C38.9645 40.978 38.9728 41.0261 38.984 41.0857C39.0065 41.2045 39.0412 41.3699 39.0914 41.5667C39.1909 41.9565 39.3563 42.4887 39.6202 43.0335C40.1287 44.0834 41.1532 45.4561 43.0108 45.5062L43.0647 43.5069C42.3398 43.4873 41.8151 42.9771 41.4201 42.1616C41.2322 41.7737 41.1072 41.3775 41.0293 41.0721C40.9908 40.9213 40.965 40.7974 40.9492 40.7138C40.9413 40.6721 40.9359 40.6408 40.9328 40.6216C40.9313 40.6121 40.9303 40.6055 40.9298 40.6023C40.9295 40.6006 40.9294 40.5998 40.9294 40.5999C40.9294 40.5999 40.9294 40.6001 40.9295 40.6005C40.9295 40.6008 40.9296 40.601 40.9296 40.6014C40.9296 40.6015 40.9297 40.6018 40.9297 40.6019C40.9297 40.6022 40.9298 40.6025 39.9394 40.7408ZM43.9943 44.2149L40.7146 33.458L38.8016 34.0413L42.0812 44.7982L43.9943 44.2149ZM39.7581 33.7496C38.7609 33.6754 38.7609 33.6755 38.7608 33.6756C38.7608 33.6757 38.7608 33.6758 38.7608 33.6759C38.7608 33.6762 38.7608 33.6765 38.7608 33.6768C38.7607 33.6776 38.7606 33.6786 38.7605 33.6798C38.7604 33.6824 38.7601 33.686 38.7598 33.6906C38.7591 33.6998 38.7581 33.7131 38.757 33.7304C38.7546 33.7649 38.7512 33.8151 38.7471 33.8796C38.7389 34.0084 38.7278 34.1942 38.7161 34.4248C38.6928 34.8857 38.6669 35.5277 38.6568 36.2536C38.6368 37.6845 38.6761 39.5179 38.9429 40.9268L40.908 40.5547C40.6811 39.3567 40.6368 37.6944 40.6566 36.2815C40.6663 35.5855 40.6911 34.9686 40.7136 34.526C40.7248 34.3049 40.7353 34.1278 40.743 34.0067C40.7469 33.9461 40.75 33.8996 40.7522 33.8687C40.7532 33.8532 40.7541 33.8416 40.7546 33.834C40.7549 33.8303 40.7551 33.8275 40.7552 33.8258C40.7553 33.825 40.7553 33.8244 40.7553 33.8241C40.7553 33.8239 40.7554 33.8238 40.7554 33.8238C40.7554 33.8237 40.7554 33.8238 40.7554 33.8238C40.7554 33.8238 40.7553 33.8239 39.7581 33.7496Z" fill="#7A56B4" mask="url(#path-7-inside-3)"/>
<path d="M42.6578 35.874C42.6266 34.5667 42.6419 33.298 42.6719 32.2414C44.1163 36.994 44.3546 39.7939 44.2147 41.4089C44.1413 42.2558 43.9651 42.7629 43.8157 43.0526C43.7173 42.8893 43.6209 42.6891 43.5287 42.4496C43.339 41.957 43.1836 41.3417 43.0594 40.6381C42.8111 39.2315 42.6973 37.5298 42.6578 35.874Z" fill="black" stroke="#7A56B4"/>
<path d="M46.6662 42.162L45.8266 35.5517C46.0227 35.9245 46.2286 36.3187 46.4345 36.7175C46.9068 37.6319 47.3773 38.5656 47.73 39.3166C47.9067 39.6927 48.051 40.0169 48.1507 40.2671C48.2007 40.3926 48.2369 40.493 48.2602 40.5684C48.2713 40.6045 48.2774 40.6285 48.2807 40.6425C48.2762 40.6552 48.2666 40.6783 48.2468 40.7131C48.2035 40.7893 48.1314 40.8868 48.0274 41.003C47.8198 41.2348 47.5299 41.4917 47.2234 41.7375C47.0322 41.8908 46.8401 42.0355 46.6662 42.162Z" fill="black" stroke="#7A56B4"/>
<mask id="path-11-inside-4" fill="white">
<path d="M15.941 12.4448L17.5641 14.35L13.8689 29.7583L12.8984 24.2963"/>
</mask>
<path d="M15.941 12.4448L17.5641 14.35L13.8689 29.7583L12.8984 24.2963" fill="black"/>
<path d="M17.5641 14.35L18.5365 14.5832L18.6551 14.0886L18.3253 13.7015L17.5641 14.35ZM13.8689 29.7583L12.8844 29.9333L14.8414 29.9915L13.8689 29.7583ZM15.1798 13.0933L16.8029 14.9985L18.3253 13.7015L16.7022 11.7963L15.1798 13.0933ZM16.5917 14.1168L12.8965 29.5251L14.8414 29.9915L18.5365 14.5832L16.5917 14.1168ZM14.8535 29.5834L13.883 24.1214L11.9139 24.4713L12.8844 29.9333L14.8535 29.5834Z" fill="#7A56B4" mask="url(#path-11-inside-4)"/>
<path d="M8.98617 44.3081C8.97831 44.33 8.97067 44.3513 8.96325 44.372L6.25825 43.3678C6.3046 43.1549 6.3657 42.8693 6.43655 42.5265C6.59835 41.7437 6.8113 40.6611 7.01576 39.4622C7.4215 37.0829 7.80537 34.1826 7.66362 32.2727C7.53719 30.5693 8.27999 28.4033 9.13052 26.5915C9.55009 25.6978 9.98476 24.9132 10.3266 24.3465C10.4976 24.0629 10.6436 23.837 10.7511 23.6811C10.8053 23.6025 10.8466 23.5462 10.8745 23.5108C10.8789 23.5053 10.8826 23.5006 10.8858 23.4968C10.9252 23.4631 10.9502 23.4315 10.9624 23.4156C10.9863 23.3842 11.0026 23.3555 11.0121 23.3376C11.0314 23.3014 11.0452 23.2667 11.054 23.2432C11.0726 23.1936 11.0901 23.1356 11.1063 23.0773C11.1396 22.9578 11.1792 22.7938 11.2237 22.5954C11.3133 22.1964 11.4285 21.6321 11.5608 20.9478C11.8256 19.5779 12.1616 17.7131 12.5018 15.6974C13.1808 11.6739 13.8821 7.01668 14.064 4.49247C14.2408 2.03858 14.8131 1.09245 15.21 0.738309C15.3805 0.58615 15.5303 0.531749 15.632 0.512032C15.6573 0.607065 15.6843 0.732144 15.712 0.886639C15.7919 1.33284 15.8621 1.9392 15.9204 2.55916C15.9784 3.17603 16.0233 3.79419 16.0538 4.25897C16.0691 4.49114 16.0807 4.68453 16.0885 4.81973C16.0923 4.88732 16.0953 4.94034 16.0972 4.97636L16.0981 4.9923L16.0949 5.02269L16.0742 5.22158C16.0563 5.39374 16.0307 5.64166 15.9999 5.94489C15.9383 6.55128 15.8557 7.3792 15.7719 8.26502C15.6052 10.0274 15.4308 12.047 15.4108 12.9913C15.393 13.8317 15.032 15.1852 14.5234 16.9051C14.4299 17.2213 14.3321 17.5481 14.2315 17.8838C13.7956 19.3391 13.3098 20.9612 12.9145 22.6088C12.4122 24.7027 12.547 26.4322 12.8126 27.6454C12.9453 28.2513 13.1104 28.7278 13.2444 29.0566C13.3115 29.221 13.3708 29.3487 13.4146 29.4374C13.4157 29.4395 13.4168 29.4417 13.4178 29.4438C13.3606 30.2173 13.076 31.4968 12.6553 33.0364C12.2147 34.6489 11.6391 36.4978 11.0661 38.2495C10.4934 40.0004 9.92485 41.6496 9.49936 42.8615C9.28666 43.4673 9.1098 43.9635 8.98617 44.3081Z" fill="#AD0707" stroke="#7A56B4"/>
<path d="M10.7639 36.7555L10.6182 34.9948C10.6671 34.9418 10.724 34.8774 10.7868 34.8018C10.9836 34.565 11.2395 34.217 11.4863 33.7621C11.9811 32.8502 12.439 31.5086 12.3092 29.7848C12.1946 28.263 12.5153 26.859 12.8713 25.8273C12.9291 25.6598 12.9876 25.5027 13.0451 25.357L13.7703 27.9897L13.2064 30.726L11.8812 35.638L9.34824 43.1717L9.34464 43.1824L9.34152 43.1933L9.05708 44.1857L6.25437 43.3451L7.33746 37.2967H10.2656H10.8087L10.7639 36.7555Z" fill="#7F0808" stroke="#7A56B4"/>
<mask id="path-15-inside-5" fill="white">
<path d="M9.45522 44.7517C9.45522 44.7517 9.38551 46.3143 9.0397 46.2112L5.15212 45.0275C5.15212 45.0275 4.90112 43.6348 5.827 43.4287C6.75288 43.2226 9.45243 44.7517 9.45243 44.7517"/>
</mask>
<path d="M9.45522 44.7517C9.45522 44.7517 9.38551 46.3143 9.0397 46.2112L5.15212 45.0275C5.15212 45.0275 4.90112 43.6348 5.827 43.4287C6.75288 43.2226 9.45243 44.7517 9.45243 44.7517" fill="black"/>
<path d="M9.0397 46.2112L8.7484 47.1679L8.75409 47.1696L9.0397 46.2112ZM5.15212 45.0275L4.16797 45.2048L4.27634 45.8061L4.86082 45.9841L5.15212 45.0275ZM9.45522 44.7517C8.45622 44.7072 8.45622 44.707 8.45623 44.707C8.45623 44.7069 8.45623 44.7068 8.45623 44.7068C8.45624 44.7067 8.45624 44.7066 8.45624 44.7066C8.45625 44.7064 8.45625 44.7064 8.45625 44.7065C8.45624 44.7067 8.45622 44.7072 8.45617 44.708C8.45609 44.7097 8.45594 44.7128 8.45571 44.7172C8.45525 44.726 8.4545 44.7399 8.45339 44.7581C8.45117 44.7946 8.44759 44.848 8.44231 44.9121C8.43151 45.0431 8.41454 45.2074 8.38979 45.3616C8.37747 45.4383 8.3644 45.505 8.35128 45.5592C8.3373 45.6169 8.32782 45.6411 8.32785 45.641C8.3283 45.64 8.33586 45.6217 8.35332 45.5931C8.36962 45.5665 8.40675 45.5107 8.47235 45.4491C8.53928 45.3862 8.65289 45.3018 8.81709 45.2531C8.9911 45.2015 9.1687 45.2062 9.3253 45.2529L8.75409 47.1696C9.21706 47.3075 9.61275 47.1217 9.84133 46.9071C10.0285 46.7314 10.1256 46.5261 10.1732 46.4123C10.2759 46.1664 10.3315 45.884 10.3645 45.6787C10.4004 45.4551 10.4225 45.2352 10.4355 45.0764C10.4422 44.9957 10.4468 44.9278 10.4497 44.8793C10.4512 44.8549 10.4523 44.8354 10.453 44.8213C10.4534 44.8142 10.4536 44.8086 10.4539 44.8044C10.454 44.8023 10.454 44.8006 10.4541 44.7992C10.4541 44.7985 10.4542 44.7979 10.4542 44.7975C10.4542 44.7972 10.4542 44.797 10.4542 44.7968C10.4542 44.7967 10.4542 44.7966 10.4542 44.7965C10.4542 44.7964 10.4542 44.7963 9.45522 44.7517ZM9.33099 45.2546L5.44341 44.0708L4.86082 45.9841L8.7484 47.1679L9.33099 45.2546ZM5.15212 45.0275C6.13626 44.8501 6.13632 44.8504 6.13637 44.8507C6.13639 44.8508 6.13645 44.8511 6.13648 44.8513C6.13655 44.8517 6.13662 44.8521 6.13668 44.8524C6.1368 44.8531 6.13691 44.8538 6.13701 44.8543C6.1372 44.8554 6.13734 44.8562 6.13743 44.8567C6.1376 44.8577 6.13757 44.8576 6.13738 44.8564C6.13699 44.8539 6.13598 44.8473 6.13462 44.837C6.13189 44.8162 6.12799 44.782 6.12508 44.739C6.11893 44.6483 6.11884 44.5418 6.13246 44.4457C6.1471 44.3424 6.16914 44.311 6.16226 44.3213C6.13834 44.357 6.08491 44.3958 6.04429 44.4048L5.60971 42.4526C4.52097 42.695 4.22407 43.6582 4.15224 44.1651C4.11288 44.4429 4.11768 44.6975 4.12965 44.8742C4.1358 44.965 4.14428 45.0413 4.15166 45.0975C4.15536 45.1257 4.15883 45.1491 4.16167 45.1672C4.16309 45.1762 4.16436 45.1839 4.16542 45.1902C4.16596 45.1934 4.16644 45.1962 4.16687 45.1986C4.16708 45.1998 4.16728 45.2009 4.16746 45.202C4.16756 45.2025 4.16764 45.203 4.16773 45.2035C4.16777 45.2037 4.16783 45.2041 4.16785 45.2042C4.16791 45.2045 4.16797 45.2048 5.15212 45.0275ZM6.04429 44.4048C6.00108 44.4144 6.12176 44.3944 6.49814 44.5067C6.82072 44.603 7.19941 44.7548 7.57585 44.9245C7.94788 45.0923 8.29583 45.2676 8.55218 45.4019C8.67979 45.4687 8.78339 45.5247 8.85434 45.5635C8.8898 45.5829 8.91702 45.598 8.93493 45.608C8.94389 45.613 8.95051 45.6167 8.95466 45.6191C8.95674 45.6202 8.9582 45.6211 8.95902 45.6215C8.95943 45.6218 8.95969 45.6219 8.95978 45.6219C8.95982 45.622 8.95983 45.622 8.95979 45.622C8.95978 45.6219 8.95972 45.6219 8.95971 45.6219C8.95965 45.6219 8.95957 45.6218 9.45243 44.7517C9.9453 43.8816 9.9452 43.8816 9.94509 43.8815C9.94504 43.8815 9.94492 43.8814 9.94482 43.8814C9.94462 43.8812 9.94438 43.8811 9.9441 43.8809C9.94354 43.8806 9.94281 43.8802 9.94192 43.8797C9.94014 43.8787 9.93772 43.8773 9.93466 43.8756C9.92854 43.8722 9.91989 43.8673 9.90884 43.8612C9.88676 43.8489 9.85508 43.8313 9.81491 43.8093C9.73462 43.7653 9.62008 43.7035 9.48014 43.6302C9.20139 43.4842 8.81659 43.2901 8.39799 43.1013C7.98381 42.9145 7.514 42.7227 7.07002 42.5902C6.67983 42.4738 6.11586 42.3399 5.60971 42.4526L6.04429 44.4048Z" fill="#7A56B4" mask="url(#path-15-inside-5)"/>
<mask id="path-17-inside-6" fill="white">
<path d="M12.6302 40.5152C12.6302 40.5152 12.1114 44.2113 9.54297 44.2782L12.8087 33.5213C12.8087 33.5213 13.1349 37.9054 12.6441 40.5124"/>
</mask>
<path d="M12.6302 40.5152C12.6302 40.5152 12.1114 44.2113 9.54297 44.2782L12.8087 33.5213C12.8087 33.5213 13.1349 37.9054 12.6441 40.5124" fill="black"/>
<path d="M9.54297 44.2782L8.58609 43.9877L8.18347 45.3139L9.56899 45.2778L9.54297 44.2782ZM12.8087 33.5213L13.8059 33.4471L11.8518 33.2308L12.8087 33.5213ZM12.6302 40.5152C11.6399 40.3762 11.6399 40.3759 11.64 40.3756C11.64 40.3755 11.64 40.3753 11.64 40.3751C11.6401 40.3748 11.6401 40.3745 11.6402 40.3743C11.6402 40.3738 11.6402 40.3736 11.6402 40.3736C11.6403 40.3736 11.6401 40.3744 11.6399 40.376C11.6394 40.3793 11.6384 40.3859 11.6368 40.3955C11.6337 40.4147 11.6283 40.4461 11.6204 40.4878C11.6045 40.5714 11.5786 40.6955 11.5401 40.8463C11.462 41.1519 11.337 41.5484 11.1494 41.9364C10.7543 42.7538 10.2322 43.2599 9.51695 43.2785L9.56899 45.2778C11.4222 45.2296 12.4437 43.8543 12.9501 42.8069C13.2132 42.2625 13.3784 41.7307 13.4779 41.3412C13.5281 41.1446 13.5628 40.9793 13.5853 40.8606C13.5966 40.8011 13.6049 40.753 13.6106 40.718C13.6135 40.7005 13.6157 40.6863 13.6173 40.6756C13.6181 40.6703 13.6188 40.6658 13.6193 40.6622C13.6196 40.6604 13.6198 40.6589 13.62 40.6575C13.6201 40.6569 13.6202 40.6562 13.6203 40.6557C13.6203 40.6554 13.6203 40.655 13.6204 40.6549C13.6204 40.6545 13.6205 40.6542 12.6302 40.5152ZM10.4998 44.5687L13.7655 33.8118L11.8518 33.2308L8.58609 43.9877L10.4998 44.5687ZM12.8087 33.5213C11.8114 33.5955 11.8114 33.5955 11.8114 33.5954C11.8114 33.5954 11.8114 33.5954 11.8114 33.5954C11.8114 33.5954 11.8114 33.5955 11.8114 33.5957C11.8114 33.596 11.8115 33.5966 11.8116 33.5975C11.8117 33.5992 11.8119 33.6019 11.8122 33.6057C11.8127 33.6132 11.8135 33.6248 11.8146 33.6403C11.8167 33.6713 11.8199 33.7178 11.8237 33.7784C11.8315 33.8995 11.842 34.0766 11.8533 34.2977C11.8757 34.7404 11.9006 35.3574 11.9105 36.0534C11.9306 37.4664 11.887 39.1289 11.6614 40.3274L13.6268 40.6975C13.892 39.2889 13.9307 37.4559 13.9103 36.025C13.9 35.2992 13.8741 34.6572 13.8507 34.1964C13.839 33.9658 13.8279 33.78 13.8197 33.6512C13.8156 33.5868 13.8122 33.5365 13.8098 33.502C13.8086 33.4848 13.8077 33.4714 13.807 33.4622C13.8067 33.4576 13.8064 33.454 13.8062 33.4515C13.8061 33.4502 13.8061 33.4492 13.806 33.4485C13.806 33.4481 13.806 33.4478 13.8059 33.4476C13.8059 33.4475 13.8059 33.4473 13.8059 33.4473C13.8059 33.4472 13.8059 33.4471 12.8087 33.5213Z" fill="#7A56B4" mask="url(#path-17-inside-6)"/>
<path d="M6.72498 35.3246L5.88708 41.9357C5.71362 41.8094 5.52195 41.6649 5.33122 41.5119C5.02488 41.2661 4.73496 41.0091 4.52714 40.7772C4.42301 40.6609 4.35068 40.5632 4.30718 40.4868C4.28709 40.4515 4.27737 40.4282 4.2728 40.4155C4.27606 40.4015 4.28209 40.3777 4.29302 40.342C4.31609 40.2667 4.35215 40.1664 4.40201 40.041C4.50144 39.7909 4.64546 39.4668 4.82194 39.0907C5.17426 38.3398 5.64442 37.4061 6.11655 36.4917C6.32268 36.0925 6.52876 35.6977 6.72498 35.3246Z" fill="black" stroke="#7A56B4"/>
<mask id="path-20-inside-7" fill="white">
<path d="M10.8171 29.4798C10.8171 29.4798 9.98044 41.5736 7.57371 43.6319C7.57371 43.6319 6.40521 42.2616 10.8171 29.4798"/>
</mask>
<path d="M10.8171 29.4798C10.8171 29.4798 9.98044 41.5736 7.57371 43.6319C7.57371 43.6319 6.40521 42.2616 10.8171 29.4798" fill="black"/>
<path d="M7.57371 43.6319L6.81278 44.2808L7.46258 45.0428L8.22367 44.3919L7.57371 43.6319ZM10.8171 29.4798C9.81946 29.4107 9.81946 29.4107 9.81946 29.4107C9.81946 29.4108 9.81946 29.4108 9.81945 29.4109C9.81943 29.4112 9.8194 29.4116 9.81936 29.4122C9.81927 29.4134 9.81914 29.4154 9.81895 29.418C9.81857 29.4234 9.81799 29.4315 9.8172 29.4425C9.81562 29.4644 9.8132 29.4974 9.80992 29.5409C9.80337 29.6278 9.79339 29.7564 9.7798 29.9213C9.75263 30.2512 9.71105 30.7259 9.65366 31.3025C9.53877 32.457 9.36109 34.0138 9.10978 35.6304C8.85764 37.2523 8.53533 38.9083 8.13614 40.2712C7.93646 40.9529 7.72405 41.5385 7.50249 42.0002C7.27354 42.4774 7.07008 42.7468 6.92375 42.872L8.22367 44.3919C8.67902 44.0025 9.02818 43.4437 9.30564 42.8655C9.5905 42.2718 9.83831 41.5749 10.0555 40.8334C10.4901 39.3497 10.8282 37.5963 11.086 35.9376C11.3447 34.2734 11.5266 32.6781 11.6438 31.5006C11.7025 30.9113 11.7451 30.4251 11.773 30.0855C11.787 29.9157 11.7974 29.7825 11.8043 29.6912C11.8077 29.6456 11.8103 29.6105 11.812 29.5865C11.8129 29.5745 11.8135 29.5653 11.814 29.559C11.8142 29.5559 11.8144 29.5534 11.8145 29.5517C11.8145 29.5508 11.8146 29.5502 11.8146 29.5497C11.8146 29.5494 11.8147 29.5492 11.8147 29.5491C11.8147 29.5489 11.8147 29.5488 10.8171 29.4798ZM7.57371 43.6319C8.33464 42.9831 8.33668 42.9855 8.3387 42.9879C8.33937 42.9887 8.34137 42.9911 8.34269 42.9927C8.34533 42.9958 8.34792 42.999 8.35046 43.0021C8.35555 43.0084 8.36045 43.0146 8.36516 43.0207C8.37459 43.033 8.38327 43.0449 8.39124 43.0563C8.40721 43.0793 8.42031 43.1004 8.43097 43.1191C8.45223 43.1565 8.46374 43.1844 8.46884 43.198C8.47852 43.2239 8.46539 43.1994 8.4525 43.0953C8.42609 42.8819 8.4089 42.4034 8.53213 41.4815C8.77856 39.6379 9.56492 36.1723 11.7624 29.806L9.8718 29.1535C7.65737 35.569 6.82204 39.1796 6.54976 41.2165C6.41362 42.235 6.41282 42.8979 6.46764 43.3409C6.49536 43.5649 6.53904 43.7474 6.5954 43.8982C6.62383 43.9742 6.65614 44.044 6.69236 44.1077C6.7105 44.1396 6.72963 44.17 6.74974 44.1989C6.75979 44.2133 6.77008 44.2274 6.7806 44.241C6.78586 44.2479 6.79117 44.2546 6.79653 44.2612C6.79922 44.2645 6.80191 44.2678 6.80462 44.2711C6.80598 44.2727 6.80801 44.2751 6.80869 44.2759C6.81073 44.2784 6.81278 44.2808 7.57371 43.6319Z" fill="#7A56B4" mask="url(#path-20-inside-7)"/>
<mask id="path-22-inside-8" fill="white">
<path d="M36.6086 12.6732L34.9883 14.5756L38.6806 29.9839L39.6539 24.5219"/>
</mask>
<path d="M36.6086 12.6732L34.9883 14.5756L38.6806 29.9839L39.6539 24.5219" fill="black"/>
<path d="M34.9883 14.5756L34.227 13.9271L33.8973 14.3142L34.0158 14.8086L34.9883 14.5756ZM38.6806 29.9839L37.7082 30.217L39.6651 30.1593L38.6806 29.9839ZM35.8473 12.0248L34.227 13.9271L35.7496 15.224L37.3699 13.3216L35.8473 12.0248ZM34.0158 14.8086L37.7082 30.217L39.6531 29.7509L35.9607 14.3425L34.0158 14.8086ZM39.6651 30.1593L40.6384 24.6973L38.6694 24.3465L37.6961 29.8085L39.6651 30.1593Z" fill="#7A56B4" mask="url(#path-22-inside-8)"/>
<path d="M19.8067 5.01921L19.8866 5.1238L20.0077 5.17545L25.6885 7.59868L25.8188 7.65428L25.959 7.63322L29.629 7.08173L29.7244 7.06739L29.8077 7.01857L34.2195 4.43101L34.3174 4.3736L34.381 4.27954L36.2805 1.4666V12.6851L34.253 15.6352L26.4824 17.0206L19.2521 16.2751L16.791 13.7162L15.5283 10.8551L16.3758 0.587447L16.4233 0.593264L19.8067 5.01921Z" fill="#AD0707" stroke="#7A56B4"/>
<mask id="path-25-inside-9" fill="white">
<path d="M0.00556601 107.474C0.00556601 107.474 7.65523 78.0167 10.7452 53.439L17.4746 14.1661C17.4746 14.1661 18.816 16.5893 26.3374 16.1855C33.8587 15.7816 34.9826 14.5783 34.9826 14.5783L42.1833 52.7371C42.1833 52.7371 51.6652 104.8 51.9998 106.235C51.9998 106.235 48.6533 113.092 43.5609 110.641C38.4686 108.19 24.6669 113.259 24.6669 113.259C24.6669 113.259 9.83886 115.178 0 107.482"/>
</mask>
<path d="M0.00556601 107.474C0.00556601 107.474 7.65523 78.0167 10.7452 53.439L17.4746 14.1661C17.4746 14.1661 18.816 16.5893 26.3374 16.1855C33.8587 15.7816 34.9826 14.5783 34.9826 14.5783L42.1833 52.7371C42.1833 52.7371 51.6652 104.8 51.9998 106.235C51.9998 106.235 48.6533 113.092 43.5609 110.641C38.4686 108.19 24.6669 113.259 24.6669 113.259C24.6669 113.259 9.83886 115.178 0 107.482" fill="#AD0707"/>
<path d="M10.7452 53.439L9.75958 53.2702L9.75581 53.2922L9.75302 53.3143L10.7452 53.439ZM17.4746 14.1661L18.3495 13.6818L16.97 11.1898L16.4889 13.9972L17.4746 14.1661ZM34.9826 14.5783L35.9653 14.3929L35.5992 12.4531L34.2518 13.8957L34.9826 14.5783ZM42.1833 52.7371L43.1671 52.558L43.1659 52.5517L42.1833 52.7371ZM51.9998 106.235L52.8985 106.673L53.0545 106.354L52.9737 106.007L51.9998 106.235ZM24.6669 113.259L24.7952 114.251L24.9064 114.237L25.0116 114.198L24.6669 113.259ZM0.00556601 107.474C0.973463 107.725 0.973505 107.725 0.973576 107.725C0.973638 107.725 0.973739 107.724 0.973864 107.724C0.974114 107.723 0.97448 107.722 0.974961 107.72C0.975923 107.716 0.977347 107.711 0.979226 107.703C0.982984 107.689 0.988564 107.667 0.995919 107.639C1.01063 107.582 1.03244 107.497 1.06098 107.385C1.11805 107.162 1.20203 106.833 1.30995 106.405C1.52577 105.549 1.83733 104.3 2.22076 102.724C2.98757 99.5725 4.04205 95.115 5.19324 89.8883C7.49451 79.4399 10.1868 65.897 11.7374 53.5638L9.75302 53.3143C8.21361 65.5587 5.53611 79.0333 3.24005 89.4581C2.09258 94.668 1.04152 99.111 0.277459 102.251C-0.104551 103.821 -0.414766 105.065 -0.629352 105.916C-0.736644 106.341 -0.820025 106.669 -0.876516 106.889C-0.904761 107 -0.926283 107.083 -0.94071 107.139C-0.947923 107.167 -0.953363 107.188 -0.956982 107.202C-0.958791 107.209 -0.960146 107.214 -0.961039 107.218C-0.961486 107.22 -0.961817 107.221 -0.962033 107.222C-0.962141 107.222 -0.962215 107.222 -0.962269 107.223C-0.962314 107.223 -0.962331 107.223 0.00556601 107.474ZM11.7308 53.6079L18.4602 14.335L16.4889 13.9972L9.75958 53.2702L11.7308 53.6079ZM17.4746 14.1661C16.5997 14.6504 16.6003 14.6515 16.6009 14.6525C16.6011 14.6529 16.6017 14.654 16.6021 14.6547C16.6029 14.6562 16.6037 14.6577 16.6046 14.6592C16.6064 14.6623 16.6082 14.6655 16.6102 14.6689C16.6141 14.6757 16.6184 14.683 16.6231 14.6908C16.6327 14.7066 16.644 14.7245 16.6571 14.7445C16.6835 14.7844 16.7174 14.8323 16.7602 14.8867C16.8457 14.9958 16.9658 15.1301 17.1295 15.2788C17.4582 15.5772 17.9544 15.9255 18.6863 16.2441C20.1456 16.8794 22.5273 17.3915 26.391 17.184L26.2837 15.1869C22.6261 15.3833 20.5764 14.8857 19.4846 14.4104C18.941 14.1737 18.6318 13.9414 18.4739 13.798C18.3943 13.7258 18.3508 13.674 18.3336 13.6522C18.325 13.6411 18.3228 13.6374 18.3258 13.642C18.3273 13.6443 18.3302 13.6487 18.3342 13.6553C18.3362 13.6585 18.3384 13.6624 18.341 13.6668C18.3423 13.669 18.3436 13.6714 18.345 13.6739C18.3457 13.6751 18.3465 13.6764 18.3472 13.6777C18.3476 13.6784 18.3481 13.6794 18.3483 13.6797C18.3489 13.6808 18.3495 13.6818 17.4746 14.1661ZM26.391 17.184C30.1947 16.9798 32.4375 16.5711 33.757 16.1915C34.4187 16.0011 34.8625 15.814 35.1608 15.6546C35.3107 15.5745 35.4262 15.5001 35.5154 15.434C35.56 15.4009 35.5983 15.3697 35.631 15.3407C35.6473 15.3263 35.6623 15.3123 35.676 15.299C35.6828 15.2924 35.6894 15.2859 35.6956 15.2795C35.6987 15.2763 35.7018 15.2732 35.7047 15.2701C35.7062 15.2685 35.7077 15.267 35.7091 15.2655C35.7099 15.2647 35.7109 15.2636 35.7113 15.2632C35.7124 15.2621 35.7134 15.2609 34.9826 14.5783C34.2518 13.8957 34.2529 13.8946 34.2539 13.8935C34.2543 13.8931 34.2553 13.892 34.256 13.8913C34.2574 13.8898 34.2587 13.8884 34.2601 13.887C34.2628 13.8842 34.2654 13.8815 34.2679 13.8789C34.273 13.8737 34.2778 13.8689 34.2823 13.8646C34.2913 13.8558 34.2991 13.8487 34.3054 13.8431C34.3179 13.832 34.3247 13.8271 34.3239 13.8276C34.3222 13.8289 34.2912 13.8517 34.2181 13.8907C34.0707 13.9695 33.7634 14.1085 33.204 14.2694C32.0812 14.5924 30.0014 14.9873 26.2837 15.1869L26.391 17.184ZM34 14.7638L41.2006 52.9226L43.1659 52.5517L35.9653 14.3929L34 14.7638ZM42.1833 52.7371C41.1995 52.9163 41.1995 52.9165 41.1996 52.9169C41.1996 52.9173 41.1998 52.9179 41.1999 52.9187C41.2002 52.9203 41.2006 52.9226 41.2012 52.9258C41.2023 52.9321 41.2041 52.9415 41.2063 52.9541C41.2109 52.9791 41.2177 53.0164 41.2267 53.0657C41.2446 53.1643 41.2713 53.3106 41.306 53.5014C41.3756 53.8831 41.4776 54.4431 41.6076 55.1563C41.8675 56.5827 42.2392 58.6221 42.6863 61.0738C43.5805 65.9772 44.7762 72.5301 45.9824 79.1278C48.3895 92.2945 50.8513 105.713 51.026 106.462L52.9737 106.007C52.8137 105.322 50.3673 91.9916 47.9498 78.7681C46.7436 72.1708 45.548 65.6183 44.6538 60.715C44.2068 58.2634 43.8351 56.2241 43.5752 54.7978C43.4452 54.0846 43.3432 53.5246 43.2737 53.143C43.2389 52.9521 43.2123 52.8059 43.1943 52.7073C43.1853 52.6581 43.1785 52.6207 43.174 52.5957C43.1717 52.5832 43.17 52.5737 43.1688 52.5674C43.1682 52.5643 43.1678 52.5619 43.1675 52.5603C43.1674 52.5595 43.1673 52.5589 43.1672 52.5586C43.1671 52.5582 43.1671 52.558 42.1833 52.7371ZM51.9998 106.235C51.1011 105.796 51.1013 105.796 51.1014 105.796C51.1015 105.795 51.1016 105.795 51.1016 105.795C51.1017 105.795 51.1018 105.795 51.1018 105.795C51.1018 105.795 51.1017 105.795 51.1013 105.796C51.1005 105.797 51.099 105.8 51.0967 105.805C51.092 105.814 51.0843 105.83 51.0734 105.85C51.0517 105.892 51.0177 105.956 50.9718 106.039C50.8799 106.205 50.7413 106.443 50.5591 106.723C50.192 107.287 49.6622 108 48.9991 108.634C48.3326 109.271 47.5731 109.788 46.7497 110.026C45.9533 110.257 45.043 110.245 43.9946 109.74L43.1272 111.542C44.6251 112.263 46.0427 112.313 47.306 111.947C48.5423 111.589 49.5743 110.851 50.3809 110.08C51.1911 109.306 51.8161 108.458 52.2356 107.813C52.4468 107.489 52.6093 107.21 52.7204 107.01C52.776 106.91 52.8188 106.829 52.8486 106.772C52.8635 106.743 52.8751 106.72 52.8835 106.704C52.8876 106.695 52.891 106.689 52.8935 106.683C52.8947 106.681 52.8958 106.679 52.8966 106.677C52.8971 106.676 52.8974 106.676 52.8977 106.675C52.8979 106.675 52.8981 106.674 52.8982 106.674C52.8984 106.674 52.8985 106.673 51.9998 106.235ZM43.9946 109.74C42.4812 109.012 40.4483 108.885 38.3956 109.018C36.3086 109.154 34.0464 109.571 31.9754 110.058C29.8996 110.546 27.9894 111.11 26.5998 111.553C25.9043 111.774 25.3374 111.965 24.9433 112.101C24.7462 112.169 24.5923 112.224 24.4869 112.261C24.4342 112.28 24.3937 112.295 24.366 112.305C24.3522 112.31 24.3415 112.313 24.3342 112.316C24.3305 112.317 24.3276 112.319 24.3256 112.319C24.3246 112.32 24.3238 112.32 24.3232 112.32C24.3229 112.32 24.3227 112.32 24.3225 112.32C24.3223 112.32 24.3221 112.321 24.6669 113.259C25.0116 114.198 25.0116 114.198 25.0115 114.198C25.0116 114.198 25.0116 114.198 25.0118 114.198C25.012 114.198 25.0125 114.198 25.0131 114.197C25.0145 114.197 25.0166 114.196 25.0196 114.195C25.0256 114.193 25.0348 114.189 25.0472 114.185C25.0721 114.176 25.1097 114.162 25.1593 114.145C25.2586 114.109 25.4062 114.057 25.5964 113.991C25.977 113.86 26.5282 113.674 27.2061 113.458C28.5634 113.027 30.4219 112.477 32.4332 112.004C34.4492 111.53 36.5922 111.14 38.5252 111.014C40.4926 110.886 42.0945 111.045 43.1272 111.542L43.9946 109.74ZM24.6669 113.259C24.5385 112.268 24.5387 112.267 24.5389 112.267C24.5389 112.267 24.539 112.267 24.539 112.267C24.5389 112.267 24.5386 112.267 24.5381 112.268C24.5371 112.268 24.5352 112.268 24.5324 112.268C24.5268 112.269 24.5177 112.27 24.5051 112.272C24.48 112.275 24.441 112.279 24.3889 112.285C24.2846 112.296 24.1276 112.312 23.9227 112.331C23.5127 112.367 22.9116 112.41 22.1576 112.44C20.6486 112.498 18.5341 112.497 16.1202 112.262C11.2709 111.788 5.32181 110.376 0.616102 106.695L-0.616102 108.27C4.51706 112.285 10.9014 113.761 15.9258 114.252C18.4487 114.498 20.6562 114.499 22.2349 114.438C23.0248 114.408 23.6589 114.362 24.0983 114.323C24.3181 114.303 24.4892 114.286 24.607 114.273C24.6659 114.266 24.7114 114.261 24.7429 114.257C24.7587 114.256 24.771 114.254 24.7798 114.253C24.7841 114.252 24.7876 114.252 24.7902 114.252C24.7915 114.251 24.7925 114.251 24.7934 114.251C24.7938 114.251 24.7943 114.251 24.7945 114.251C24.7949 114.251 24.7952 114.251 24.6669 113.259Z" fill="#7A56B4" mask="url(#path-25-inside-9)"/>
<path d="M1.25799 104.507C1.31542 104.662 1.37783 104.819 1.44528 104.974C1.67987 105.513 2.00086 106.088 2.43228 106.457C2.6546 106.648 2.92551 106.8 3.24408 106.847C3.56874 106.894 3.89471 106.824 4.20752 106.649C4.80388 106.316 5.38132 105.587 5.97319 104.434C6.57463 103.262 7.22764 101.577 7.93656 99.2276C8.91869 95.9731 10.017 91.4141 11.2351 85.123C11.1892 85.9633 11.1463 86.8302 11.1085 87.7112C10.9702 90.9402 10.9007 94.3657 11.0048 97.3658C11.1083 100.345 11.3841 102.971 11.9669 104.56L12.4563 105.894L12.9102 104.548L12.4364 104.388C12.9102 104.548 12.9102 104.548 12.9102 104.547L12.9104 104.547L12.9112 104.545L12.9139 104.537L12.9248 104.504L12.9668 104.378C13.0034 104.268 13.057 104.106 13.1249 103.899C13.2606 103.485 13.4536 102.89 13.6829 102.165C14.1412 100.716 14.745 98.7452 15.3261 96.663C15.751 95.1403 16.1649 93.5536 16.5009 92.0651C16.5477 92.7381 16.6011 93.4342 16.6617 94.1346C16.84 96.1927 17.0825 98.3017 17.4098 99.9744C17.5731 100.809 17.7608 101.553 17.979 102.133C18.0881 102.423 18.2099 102.686 18.3484 102.904C18.4836 103.117 18.6567 103.322 18.8828 103.45L19.4303 103.76L19.6089 103.157L19.1295 103.015C19.6089 103.157 19.6089 103.157 19.609 103.156L19.6093 103.156L19.6102 103.152L19.6139 103.14L19.6282 103.091C19.6409 103.048 19.6595 102.984 19.6839 102.9C19.7325 102.733 19.8037 102.486 19.8941 102.168C20.0749 101.532 20.3328 100.611 20.641 99.4698C21.2574 97.1877 22.076 94.024 22.8842 90.4973C24.0016 85.6217 25.1065 80.0233 25.6238 75.0964C25.9466 77.6402 26.3688 80.7578 26.8662 83.9563C27.4601 87.7755 28.1626 91.7192 28.9328 94.9415C29.3178 96.552 29.722 97.9923 30.1415 99.1511C30.5538 100.29 31.0034 101.224 31.5066 101.761L32.0192 102.308L32.3273 101.624L31.8715 101.419C32.3273 101.624 32.3274 101.624 32.3275 101.624L32.3278 101.623L32.3288 101.621L32.3316 101.615L32.3412 101.593C32.3493 101.574 32.3609 101.547 32.3757 101.511C32.4053 101.44 32.4478 101.334 32.5015 101.192C32.6089 100.909 32.7613 100.483 32.9455 99.8982C33.3139 98.7295 33.8092 96.9306 34.3258 94.3906C35.2216 89.9856 36.1814 83.351 36.653 73.9085C37.0511 76.0452 37.5642 78.7268 38.1186 81.4434C38.7396 84.4862 39.4139 87.5795 40.0378 90.0014C40.3494 91.2112 40.6509 92.2631 40.9293 93.0607C41.0683 93.4588 41.205 93.8038 41.3384 94.0775C41.4623 94.3318 41.614 94.591 41.806 94.7508L42.4254 95.2663L42.6122 94.4824C43.1107 92.3916 43.4354 90.2651 43.584 88.1245C43.785 88.7494 44.0156 89.4245 44.2711 90.1058C44.7548 91.3951 45.335 92.7257 45.9826 93.7806C46.3064 94.308 46.6564 94.7819 47.0314 95.1498C47.4034 95.5147 47.8301 95.8047 48.3091 95.9081L48.7665 96.0068L48.8953 95.5569L48.4146 95.4193C48.8953 95.5569 48.8953 95.5569 48.8953 95.5568L48.8954 95.5566L48.8956 95.5558L48.8963 95.5534L48.8988 95.5446L48.908 95.5118C48.9159 95.4834 48.9273 95.4419 48.9416 95.3888C48.9701 95.2828 49.0102 95.1302 49.0568 94.9425C49.1136 94.7137 49.1803 94.4318 49.2476 94.1173L51.4805 106.168C51.4612 106.216 51.436 106.275 51.405 106.346C51.3191 106.542 51.1885 106.82 51.012 107.143C50.6573 107.792 50.1258 108.608 49.4115 109.305C48.6983 110.002 47.8214 110.563 46.7708 110.746C45.7278 110.928 44.4535 110.749 42.9178 109.858L42.9003 109.847L42.8821 109.839L42.6669 110.29C42.8821 109.839 42.8815 109.839 42.8809 109.838L42.8797 109.838L42.8769 109.836L42.8704 109.833L42.8531 109.826C42.8398 109.82 42.8226 109.813 42.8014 109.805C42.759 109.789 42.7007 109.768 42.6247 109.745C42.4728 109.699 42.2506 109.644 41.945 109.595C41.3342 109.496 40.3888 109.423 39.0033 109.498C36.2412 109.649 31.7127 110.396 24.5672 112.747C24.5474 112.749 24.5223 112.752 24.4919 112.754C24.406 112.762 24.2784 112.773 24.1131 112.786C23.7824 112.812 23.3013 112.845 22.7026 112.874C21.5048 112.932 19.8387 112.973 17.9668 112.906C14.2027 112.773 9.68489 112.207 6.45075 110.526L6.43755 110.519L6.42397 110.513L6.42382 110.513L6.42316 110.513L6.42034 110.512L6.40883 110.506L6.36311 110.486C6.32287 110.468 6.26353 110.441 6.18763 110.406C6.03581 110.337 5.81786 110.237 5.55412 110.113C5.02628 109.866 4.31672 109.527 3.58759 109.156C2.85682 108.784 2.1141 108.385 1.51683 108.018C1.21783 107.835 0.962907 107.664 0.766999 107.513C0.676058 107.443 0.605424 107.383 0.551897 107.332L1.25799 104.507Z" fill="#7F0808" stroke="#7A56B4"/>
<path d="M17.5733 78.4337L14.8941 84.2333L15.1762 75.7347L15.8362 77.3279L16.4016 78.6928L16.7813 77.2651L19.8786 65.62L18.6993 80.2903L18.5245 78.5922L18.3379 76.7786L17.5733 78.4337Z" fill="#DD4B4B" stroke="#7A56B4"/>
<path d="M31.4752 60.0168C31.7809 61.2175 32.1403 62.6498 32.4908 64.0957C32.8798 65.7007 33.257 67.3183 33.5377 68.6534L32.8194 67.1774L31.8799 67.4079L31.3763 61.7701L31.4752 60.0168Z" fill="#DD4B4B" stroke="#7A56B4"/>
<path d="M41.1035 67.032L40.105 54.9003L44.4293 77.5104L42.8262 73.9561L41.8716 74.1277L41.6145 77.8974L39.0485 64.7874L40.1478 67.2751L41.1035 67.032Z" fill="#DD4B4B" stroke="#7A56B4"/>
<path d="M18.5896 43.5801C19.1888 40.8302 19.8477 38.8451 20.36 37.5421C20.6111 55.016 19.6682 63.2638 18.661 67.1199C18.1652 69.0181 17.6731 69.7709 17.3715 70.0546C16.4241 57.7005 17.3871 49.0984 18.5896 43.5801Z" fill="#7F0808" stroke="#7A56B4"/>
<path d="M27.627 66.846C27.5658 67.679 27.5085 68.4026 27.46 68.9891C26.5584 66.9782 26.0414 64.5015 25.7996 61.8141C25.4963 58.4446 25.6297 54.7936 25.9453 51.4147C26.2607 48.0378 26.757 44.9453 27.1747 42.6963C27.2818 42.1193 27.3838 41.598 27.4761 41.142C27.8042 42.8793 28.0076 45.0075 28.1174 47.3343C28.2751 50.6733 28.2388 54.3777 28.1197 57.8373C28.0006 61.2956 27.7989 64.503 27.627 66.846Z" fill="#7F0808" stroke="#7A56B4"/>
<path d="M35.8598 63.0231C35.8603 63.032 35.8609 63.041 35.8615 63.0499C33.3569 55.1879 32.6123 49.4874 32.5247 45.658C32.4747 43.4709 32.639 41.8932 32.8125 40.8706C32.8231 40.8082 32.8337 40.7478 32.8444 40.6895C32.9587 40.9969 33.0721 41.3449 33.1838 41.7316C33.4754 42.7412 33.7442 43.9726 33.9902 45.3477C34.4823 48.0972 34.8778 51.3878 35.1865 54.5595C35.495 57.7295 35.7159 60.7722 35.8598 63.0231Z" fill="#7F0808" stroke="#7A56B4"/>
<path d="M26.4801 5.37966L26.4849 5.37971C29.0125 5.53361 31.269 4.22153 32.8518 2.93914C33.6523 2.29059 34.2999 1.6339 34.7475 1.1396C34.9711 0.89261 35.1457 0.685219 35.2653 0.538331L35.9053 0.636421C34.438 3.69967 32.5361 5.29531 30.9915 6.13116C30.167 6.5773 29.4373 6.81072 28.9188 6.93237C28.6596 6.99319 28.4535 7.02597 28.3155 7.04343C28.2464 7.05216 28.1945 7.05705 28.1614 7.05969C28.1449 7.06101 28.1331 7.06177 28.1263 7.06217L28.1204 7.06249L28.12 7.06251L28.1198 7.06252L28.1195 7.06253L27.637 7.08067L27.6398 7.56497L27.6871 15.8581H24.9415L25.0729 7.60629L25.0807 7.11696L24.5916 7.09868C21.9877 7.00136 20.0606 5.27099 18.753 3.46549C18.1045 2.57016 17.6252 1.67833 17.3079 1.00907C17.2267 0.837646 17.1562 0.681253 17.0965 0.543649L17.7323 0.513047C19.3696 2.90775 21.5159 4.12499 23.267 4.74151C24.1707 5.05967 24.9717 5.21898 25.5491 5.29889C25.838 5.33889 26.0718 5.35912 26.2356 5.36935C26.3175 5.37447 26.3819 5.3771 26.427 5.37845C26.4496 5.37912 26.4674 5.37947 26.4801 5.37966Z" fill="black" stroke="#7A56B4"/>
<path d="M29.9066 23.3096L29.9015 23.281L29.9004 23.2728L29.893 23.2185C29.8865 23.1716 29.8769 23.1042 29.8645 23.0209C29.8398 22.8543 29.8036 22.6234 29.7578 22.3655C29.6681 21.8599 29.5355 21.2148 29.3712 20.7555C29.3293 20.6384 29.2817 20.5227 29.2271 20.4193C29.176 20.3225 29.1021 20.2037 28.9958 20.1086C28.8838 20.0084 28.6815 19.8917 28.4244 19.9498C28.1971 20.0011 28.0599 20.1626 27.9875 20.2704C27.8409 20.4886 27.735 20.8266 27.6437 21.2434C27.5479 21.6805 27.4551 22.2722 27.3656 23.0498C27.2986 23.6323 27.2365 24.1564 27.179 24.6279C27.1509 24.3448 27.1206 24.0591 27.0881 23.7747C26.9444 22.5173 26.7539 21.2582 26.504 20.3604C26.3822 19.9228 26.2311 19.5125 26.0294 19.2342C25.9282 19.0944 25.7772 18.9357 25.5605 18.8595C25.3147 18.7731 25.0726 18.8225 24.8765 18.9462C24.5765 19.1354 24.3415 19.5041 24.153 19.8703C23.9507 20.2631 23.7511 20.7585 23.5579 21.309C23.1708 22.4122 22.7919 23.7886 22.4597 25.1251C22.3262 25.6626 22.1997 26.1954 22.083 26.7037C21.998 25.6024 21.8825 24.3758 21.728 23.1999C21.5065 21.5135 21.1976 19.8693 20.7573 18.8599C20.6453 18.6031 20.5161 18.3664 20.3635 18.1745C20.213 17.9851 20.013 17.8059 19.7517 17.7246C19.1586 17.54 18.6708 17.9414 18.3262 18.4099C17.7464 19.1982 17.2764 19.8998 16.8958 20.5152L17.8467 14.9654C18.0117 15.0541 18.207 15.1535 18.4322 15.259C19.2324 15.6338 20.4097 16.0853 21.9367 16.4053C24.9165 17.0299 29.2104 17.1501 34.6092 15.2476L35.8297 21.6715L35.284 22.0112L35.0599 22.1507L35.0487 22.4144L34.8066 28.0929L32.753 21.2667L32.5372 20.5492L31.9575 21.0238L32.2742 21.4107C31.9575 21.0238 31.9568 21.0243 31.9562 21.0249L31.9548 21.026L31.9521 21.0283L31.9463 21.0332L31.9335 21.0445C31.9245 21.0528 31.9145 21.0623 31.9035 21.0734C31.8816 21.0956 31.8562 21.1236 31.8279 21.1586C31.7712 21.2286 31.7036 21.3262 31.6303 21.46C31.4842 21.7272 31.3149 22.1411 31.1668 22.7753C30.9256 23.8076 30.7355 25.4455 30.805 28.0301C30.6146 27.097 30.4293 26.136 30.2764 25.323C30.1648 24.7299 30.0706 24.2165 30.0042 23.8514C29.9711 23.6689 29.9449 23.5235 29.927 23.4238L29.9066 23.3096Z" fill="#7F0808" stroke="#7A56B4"/>
<path d="M11.2255 59.1282C11.1832 59.2746 11.141 59.4225 11.0988 59.5716L11.3423 57.9612L15.1307 44.8753L14.8835 50.972L14.3975 54.0376C14.3264 53.9367 14.2231 53.8311 14.0744 53.7681C13.8622 53.6782 13.6548 53.7147 13.4989 53.7924C13.3574 53.8629 13.2471 53.9706 13.1647 54.0676C12.9981 54.2637 12.8414 54.5423 12.6936 54.854C12.542 55.1737 12.3849 55.5605 12.2251 55.995C11.9053 56.8645 11.5648 57.9513 11.2255 59.1282Z" fill="#DD4B4B" stroke="#7A56B4"/>
</svg>
