<svg width="52" height="114" viewBox="0 0 52 114" fill="none" xmlns="http://www.w3.org/2000/svg">
<path d="M39.3798 24.0811C39.3798 24.0811 36.7444 14.4731 36.6133 12.631L39.3798 24.0811Z" fill="#599A49"/>
<path d="M43.2832 45.1227C43.2832 45.1227 38.7598 32.75 38.6231 29.4825C38.6231 29.4825 40.1124 26.8985 39.1474 22.8864C38.1825 18.8742 36.6738 15.026 36.6375 13.1866C36.6012 11.3473 35.957 5.21792 35.957 5.21792C35.957 5.21792 36.2164 0.241625 36.6375 0.241625C36.6375 0.241625 38.6343 -0.314077 38.9913 4.66777C39.3482 9.64961 41.7801 23.1614 41.9976 23.2698C42.2151 23.3782 45.6677 28.7657 45.3916 32.4388C45.1155 36.112 46.8808 43.7834 46.8808 43.7834L43.2832 45.1227Z" fill="#A737B7"/>
<path d="M45.6364 36.9372H42.2899L42.4544 34.9645C42.4544 34.9645 40.5023 33.2057 40.7449 29.9909C40.9875 26.7762 39.3811 24.0811 39.3811 24.0811L38.2656 28.121L38.8596 30.9829L40.1899 35.9119L42.75 43.4416L43.1739 44.9198L46.8886 43.7945L45.6364 36.9372Z" fill="#6F0475"/>
<path d="M43.0977 44.8588C43.0977 44.8588 43.1674 46.4203 43.5104 46.3147L47.4147 45.1339C47.4147 45.1339 47.6657 43.7446 46.7398 43.539C45.814 43.3334 43.1144 44.8588 43.1144 44.8588" fill="black"/>
<path d="M39.9394 40.6327C39.9394 40.6327 40.4553 44.3198 43.0377 44.3893L39.7581 33.6587C39.7581 33.6587 39.4318 38.0321 39.9254 40.6327" fill="black"/>
<path d="M42.2948 29.3992C42.2948 29.3992 41.4136 41.6663 43.812 43.7224C43.812 43.7224 46.7095 42.1497 42.2948 29.3992Z" fill="black"/>
<path d="M46.27 42.9277C46.27 42.9277 48.7995 41.2967 48.78 40.527C48.7604 39.7574 44.9844 32.8306 44.9844 32.8306L46.27 42.9277Z" fill="black"/>
<path d="M15.941 12.4059L17.5641 14.3064L13.8689 29.6771L12.8984 24.2284" fill="black"/>
<path d="M9.26218 44.8976C9.26218 44.8976 13.7856 32.5249 13.925 29.2546C13.925 29.2546 12.4358 26.6734 13.4008 22.6613C14.3657 18.6491 15.8716 14.8009 15.9107 12.9616C15.9497 11.1222 16.5995 4.98449 16.5995 4.98449C16.5995 4.98449 16.3429 0.0109791 15.919 0.0109791C15.919 0.0109791 13.9251 -0.544705 13.5653 4.43714C13.2055 9.41898 10.7765 22.9308 10.559 23.0531C10.3415 23.1753 6.89169 28.5489 7.16499 32.2221C7.43829 35.8953 5.67578 43.5695 5.67578 43.5695L9.26218 44.8976Z" fill="#A737B7"/>
<path d="M6.91514 36.6983H10.2617L10.0972 34.7144C10.0972 34.7144 12.0493 32.9556 11.8067 29.7409C11.5641 26.5262 13.1648 23.8561 13.1648 23.8561L14.2804 27.896L13.6891 30.7579L12.3561 35.6869L9.81828 43.2166L9.39437 44.692L5.67969 43.5806L6.91514 36.6983Z" fill="#6F0475"/>
<path d="M9.45524 44.6336C9.45524 44.6336 9.38552 46.1924 9.03971 46.0896L5.15212 44.9087C5.15212 44.9087 4.90112 43.5195 5.827 43.3139C6.75288 43.1083 9.45244 44.6336 9.45244 44.6336" fill="black"/>
<path d="M12.6263 40.4075C12.6263 40.4075 12.1075 44.0946 9.53906 44.1613L12.8048 33.4307C12.8048 33.4307 13.131 37.8041 12.6402 40.4047" fill="black"/>
<path d="M6.27563 42.7026C6.27563 42.7026 3.74897 41.0717 3.76571 40.302C3.78244 39.5324 7.55849 32.6056 7.55849 32.6056L6.27563 42.7026Z" fill="black"/>
<path d="M10.8132 29.3992C10.8132 29.3992 9.97654 41.4635 7.5698 43.5168C7.5698 43.5168 6.4013 42.1497 10.8132 29.3992Z" fill="black"/>
<path d="M36.6047 12.6338L34.9844 14.5315L38.6767 29.9021L39.65 24.4535" fill="black"/>
<path d="M15.9164 0.019371L16.6889 0.11384L20.2 4.69558L25.8808 7.11287L29.5509 6.56273L33.9627 3.98151L36.1408 0.764008L36.7766 0.572292V12.8005L34.5428 16.043L26.4971 17.4739L19.0148 16.7042L16.3654 13.9563L15.0156 10.9055L15.9164 0.019371Z" fill="#A737B7"/>
<path d="M0.00165978 107.203C0.00165978 107.203 7.65135 77.8172 10.7413 53.2997L17.4707 14.123C17.4707 14.123 18.8121 16.5402 26.3335 16.1374C33.8549 15.7345 34.9788 14.5342 34.9788 14.5342L42.1795 52.5996C42.1795 52.5996 51.6614 104.535 51.9961 105.966C51.9961 105.966 48.6495 112.807 43.5572 110.362C38.4648 107.917 24.663 112.974 24.663 112.974C24.663 112.974 9.83499 114.888 -0.00390625 107.211" fill="#A737B7"/>
<path d="M1.22429 102.304C1.22429 102.304 4.7828 120.978 12.4325 75.3999C12.4325 75.3999 10.2238 98.1169 12.4325 104.124C12.4325 104.124 17.4328 89.323 16.6966 85.8054C16.6966 85.8054 17.1121 101.615 19.1256 102.754C19.1256 102.754 25.7434 80.4429 25.4116 68.901C25.4116 68.901 28.4458 97.5195 31.8676 101.162C31.8676 101.162 35.6186 92.8628 36.3297 69.1761C36.3297 69.1761 40.4655 92.7516 42.1221 94.127C42.8615 91.0332 43.2136 87.8601 43.1706 84.6801C43.1706 84.6801 45.5969 94.5715 48.4108 95.1772C48.4108 95.1772 49.4594 91.5235 49.0188 89.9287L51.9944 105.949C51.9944 105.949 49.1387 113.76 42.6631 110.012C42.6631 110.012 38.9651 108.253 24.667 112.954C24.667 112.954 12.8926 114.152 6.21625 110.69C6.21625 110.69 0.663735 108.217 0 107.191L1.22429 102.304Z" fill="#6F0475"/>
<path d="M20.8177 59.9738L18.7567 85.5499L18.0233 78.4425L14.3086 86.464L14.7492 73.2189L16.2942 76.9393L20.8177 59.9738Z" fill="#CF75D8"/>
<path d="M31.1528 56.6395C31.1528 56.6395 34.9037 70.8099 34.4603 71.5156L32.3659 67.2228L32.8232 83.4187L30.8711 61.6186L31.1528 56.6395Z" fill="#CF75D8"/>
<path d="M37.6953 60.3406L41.8506 81.5183L42.3666 73.9719L45.7131 81.3738L38.8359 45.5034L40.6012 66.9006L37.6953 60.3406Z" fill="#CF75D8"/>
<path d="M20.819 35.2424C20.819 35.2424 14.8621 45.1366 16.9147 70.4904C16.9147 70.4904 21.5497 73.1272 20.819 35.2424Z" fill="#6F0475"/>
<path d="M27.4389 38.8322C27.4389 38.8322 21.9952 61.3381 27.8071 70.5293C27.8071 70.5293 30.0855 46.8954 27.4389 38.8322Z" fill="#6F0475"/>
<path d="M32.6864 39.1267C32.6864 39.1267 29.6188 47.1177 36.5657 66.5338C36.5657 66.5338 35.4976 43.2306 32.6864 39.1267Z" fill="#6F0475"/>
<path d="M16.3672 0.0693815C16.3672 0.0693815 18.905 7.36015 24.5691 7.57132L24.4296 16.3097H28.1861L28.1359 7.5352C28.1359 7.5352 33.5434 7.33238 36.6306 0.23332L35.0494 -0.00840759C35.0494 -0.00840759 31.1897 5.15403 26.4989 4.85951C26.4989 4.85951 21.15 4.85952 17.9875 -0.00840759L16.3672 0.0693815Z" fill="#FFE70E"/>
<path d="M17.4729 14.1203C17.4729 14.1203 23.8426 18.6298 34.8639 14.5788L34.9866 14.5315L36.381 21.8529L35.5444 22.3725L35.1762 30.9858L32.2703 21.35C32.2703 21.35 30.9094 22.4614 31.3891 29.8133C31.8687 37.1652 29.4034 23.2921 29.4034 23.2921C29.4034 23.2921 28.5668 16.9016 27.8584 23.0421C27.1501 29.1825 26.9855 28.8769 26.9855 28.8769C26.9855 28.8769 26.5393 18.4325 25.1394 19.3133C23.7394 20.1941 21.7928 30.3773 21.7928 30.3773C21.7928 30.3773 21.3103 15.1456 18.7251 18.652C16.1399 22.1585 15.7969 23.8784 15.7969 23.8784L17.4729 14.1203Z" fill="#6F0475"/>
<path d="M15.7935 40.666L10.849 57.7038L8.98047 70.032C8.98047 70.032 14.4605 45.0616 14.3127 57.5926L15.378 50.8881L15.7935 40.666Z" fill="#CF75D8"/>
</svg>
