<svg xmlns="http://www.w3.org/2000/svg" width="49" height="49" fill="none"><path d="M48.05 9.847h-3.23V8.746a.95.95 0 0 0-.684-.95c-2.235-.586-4.537-.88-6.848-.874-3.8 0-8.976.855-12.803 4.75-3.8-3.932-9.014-4.75-12.803-4.75-2.31-.006-4.613.288-6.848.874a.95.95 0 0 0-.684.95v1.092H.95a.95.95 0 0 0-.95.95v30.337a.95.95 0 0 0 .95.95.95.95 0 0 0 .465-.123c.095-.047 9.593-5.243 22.852-1.9h.228c.076.01.152.01.228 0 13.297-3.372 22.795 1.814 22.852 1.9A.95.95 0 0 0 49 41.134V10.797a.95.95 0 0 0-.95-.95zM1.9 39.614V11.747h2.27v23.82a.95.95 0 0 0 .939.961c.05.001.103-.003.153-.01 1.965-.3 3.95-.46 5.936-.475a24.64 24.64 0 0 1 8.111 1.225A34.92 34.92 0 0 0 1.9 39.614zm9.3-5.46c-1.728.004-3.453.115-5.167.332V9.496c1.85-.412 3.738-.622 5.632-.627 3.552 0 8.453.817 11.853 4.654l.03 23.66c-1.976-1.292-5.832-3.03-12.347-3.03zm14.247-20.63c3.4-3.8 8.3-4.654 11.853-4.654a26.31 26.31 0 0 1 5.632.627v24.99c-1.704-.22-3.42-.334-5.138-.342-6.478 0-10.343 1.738-12.347 3.03v-23.65zm21.646 26.09c-5.52-2.26-11.527-3.067-17.448-2.346a24.7 24.7 0 0 1 8.149-1.225 41.56 41.56 0 0 1 5.974.465.95.95 0 0 0 1.092-.95v-23.81h2.27l-.038 27.867z" fill="#d7dde0"/></svg>