<svg id="Calque_12" data-name="Calque 12" xmlns="http://www.w3.org/2000/svg" viewBox="0 0 267.15 379.5"><defs><style>.cls-1{fill:#d865ef;}.cls-2{fill:#8d4193;}</style></defs><title>tshirtrose</title><g id="corps"><g id="t-shirt"><path class="cls-1" d="M1029.4,648.25l13.54,43.89,2.36,15.67A20.39,20.39,0,0,1,1034,729.25c-30.64,14.68-109.9,42.77-200.74-3a19.87,19.87,0,0,1-10.6-21c3.66-22,12.53-65.89,30-106.43l71.64,23,66.44-10.35,13.65-4.24" transform="translate(-799.39 -371.82)"/><path class="cls-1" d="M899.91,392.66,842.15,380.2c-1.45-.31-.59-1.37-1.71-.39l-41.05,35,7.32,10.7s34.45,28.15,44.58,34.53l1.88-1.87s-13.09,92.35-3.1,119.1c0,0,5.91,22.8,65.6,25.9,10.53.55,79,2.46,86.14-7.29,35.93-49,6.93-151.94,6.93-151.94l.2-3.95,1.88,3,54.43-21.12,1.29-5.86s-19.66-34.81-41.43-44.2c0,0-28.72,13.89-56.31,20.27C968.8,392.09,935.2,419.12,899.91,392.66Z" transform="translate(-799.39 -371.82)"/><path class="cls-2" d="M920.34,603.34l-9.45-38.41s-50.38-6.66-62.91-58.61c0,0-2.85,55.86,1.11,67.83,3.66,11.07,12.12,28.73,63.09,28.77" transform="translate(-799.39 -371.82)"/><path class="cls-2" d="M990.66,611.5l-65.66,63a2.22,2.22,0,0,0,2.88,3.37c25.2-19.28,60.39-48.33,72.38-68.48" transform="translate(-799.39 -371.82)"/></g></g></svg>