<svg xmlns="http://www.w3.org/2000/svg" viewBox="0 0 267.15 379.5"><path d="M230 276.43l13.54 43.9L245.9 336a20.39 20.39 0 0 1-11.3 21.44c-30.64 14.68-109.9 42.77-200.74-3a19.87 19.87 0 0 1-10.6-21c3.66-22 12.53-65.9 30-106.43l71.64 23 66.44-10.35L205 235.4M100.52 20.84L42.76 8.38c-1.45-.3-.6-1.37-1.7-.4L0 43l7.32 10.7S41.77 81.84 51.9 88.22l1.88-1.87s-13.1 92.35-3.1 119.1c0 0 5.9 22.8 65.6 25.9 10.53.55 79 2.46 86.14-7.3 35.93-49 6.93-151.94 6.93-151.94l.2-3.95 1.88 3 54.43-21.12 1.3-5.86S247.5 9.38 225.72-.01c0 0-28.72 13.9-56.3 20.27 0 .01-33.6 27.04-68.9.58z" fill="#2b79d6"/><path d="M120.95 231.52l-9.45-38.4s-50.38-6.66-62.9-58.6c0 0-2.85 55.86 1.1 67.83 3.66 11.07 12.12 28.73 63.1 28.77m78.47 8.56l-65.66 63a2.22 2.22 0 0 0 2.88 3.37c25.2-19.28 60.4-48.33 72.38-68.48" fill="#125faa"/></svg>